<svg width="211" height="85" viewBox="0 0 211 85" fill="none" xmlns="http://www.w3.org/2000/svg">
<path d="M108.552 42.7651H110.358V50.9026H108.552V42.7651Z" fill="white"/>
<path d="M112.183 42.7651H113.977L117.403 48.2246H117.424V42.7651H119.114V50.9026H117.307L113.891 45.4553H113.87V50.9026H112.18V42.7651H112.183Z" fill="white"/>
<path d="M120.942 42.7653H124.484C125.594 42.7653 126.493 43.1095 127.18 43.8011C127.867 44.4927 128.21 45.4889 128.21 46.7868C128.21 48.0176 127.891 49.0108 127.256 49.7663C126.621 50.5219 125.695 50.8997 124.484 50.8997H120.942V42.7622V42.7653ZM122.748 49.3977H124.358C124.941 49.3977 125.428 49.1997 125.818 48.8067C126.211 48.4106 126.404 47.7952 126.404 46.9604C126.404 46.1256 126.223 45.4188 125.858 44.9618C125.493 44.5018 124.886 44.2733 124.036 44.2733H122.748V49.4007V49.3977Z" fill="white"/>
<path d="M136.325 47.8256C136.325 48.9041 136.021 49.7176 135.411 50.2629C134.801 50.8113 133.936 51.0825 132.82 51.0825C131.703 51.0825 130.829 50.8113 130.225 50.2721C129.624 49.7328 129.323 48.9163 129.323 47.8226V42.7622H131.13V47.8226C131.13 48.3558 131.246 48.7823 131.479 49.1052C131.713 49.4282 132.16 49.5896 132.82 49.5896C133.479 49.5896 133.89 49.4525 134.141 49.1722C134.396 48.895 134.522 48.4441 134.522 47.8226V42.7622H136.328V47.8226L136.325 47.8256Z" fill="white"/>
<path d="M139.349 48.2003C139.349 48.7091 139.521 49.0869 139.861 49.3336C140.202 49.5804 140.637 49.7053 141.168 49.7053C141.419 49.7053 141.655 49.6809 141.876 49.6322C142.094 49.5835 142.296 49.4768 142.486 49.3184C142.673 49.16 142.769 48.9498 142.769 48.6908C142.769 48.5476 142.732 48.4166 142.658 48.3039C142.585 48.1912 142.502 48.0967 142.41 48.0236C142.318 47.9505 142.177 47.8804 141.983 47.8073C141.793 47.7342 141.631 47.6824 141.502 47.6489C141.373 47.6154 141.177 47.5666 140.916 47.4996C140.655 47.4356 140.459 47.3838 140.33 47.3473C139.984 47.265 139.683 47.1706 139.429 47.067C139.171 46.9634 138.917 46.8263 138.665 46.6526C138.411 46.479 138.217 46.2535 138.085 45.9793C137.95 45.7051 137.883 45.3913 137.883 45.0349C137.883 44.2519 138.19 43.6456 138.803 43.2161C139.416 42.7865 140.134 42.5732 140.953 42.5732C141.557 42.5732 142.1 42.6555 142.575 42.8231C143.051 42.9906 143.446 43.277 143.765 43.6822C144.084 44.0874 144.244 44.5931 144.244 45.1933H142.496C142.45 44.3738 141.91 43.9625 140.873 43.9625C140.542 43.9625 140.254 44.0387 140.005 44.191C139.757 44.3433 139.631 44.5749 139.631 44.8856C139.631 45.1964 139.763 45.4005 140.027 45.5193C140.291 45.6381 140.974 45.8361 142.078 46.1164C143.704 46.4516 144.517 47.2406 144.517 48.4867C144.517 49.2605 144.219 49.8881 143.624 50.3664C143.029 50.8447 142.189 51.0854 141.1 51.0854C140.631 51.0854 140.192 51.0275 139.778 50.9148C139.364 50.8021 138.993 50.6315 138.662 50.4091C138.331 50.1836 138.07 49.882 137.88 49.5042C137.69 49.1234 137.595 48.6908 137.604 48.2064H139.352L139.349 48.2003Z" fill="white"/>
<path d="M147.265 44.2702H144.805V42.7651H151.531V44.2702H149.071V50.9026H147.265V44.2702Z" fill="white"/>
<path d="M152.724 42.7651H157.149C157.87 42.7651 158.449 42.9814 158.891 43.4141C159.333 43.8467 159.553 44.3798 159.553 45.0105C159.553 46.028 159.121 46.7074 158.253 47.0517V47.073C158.974 47.271 159.373 47.9047 159.449 48.9771C159.449 49.0228 159.455 49.1356 159.468 49.3184C159.48 49.5012 159.489 49.6474 159.495 49.7571C159.501 49.8667 159.517 50.0038 159.541 50.1684C159.563 50.3329 159.596 50.473 159.639 50.5949C159.682 50.7167 159.734 50.8203 159.796 50.9026H157.989C157.928 50.7503 157.882 50.5675 157.851 50.3512C157.821 50.1349 157.793 49.882 157.772 49.5926C157.75 49.3031 157.726 49.0899 157.704 48.9558C157.643 48.5141 157.511 48.2003 157.309 48.0114C157.106 47.8225 156.781 47.725 156.336 47.725H154.53V50.9056H152.724V42.7682V42.7651ZM154.527 46.4454H156.505C156.925 46.4454 157.238 46.351 157.443 46.1651C157.646 45.9793 157.747 45.6838 157.747 45.2816C157.747 44.5291 157.333 44.1544 156.505 44.1544H154.527V46.4454Z" fill="white"/>
<path d="M160.697 42.7651H162.504V50.9026H160.697V42.7651Z" fill="white"/>
<path d="M166.751 42.7651H168.604L171.674 50.9026H169.8L169.18 49.0899H166.11L165.466 50.9026H163.651L166.754 42.7651H166.751ZM166.58 47.7555H168.708L167.674 44.7698H167.653L166.583 47.7555H166.58Z" fill="white"/>
<path d="M172.56 42.7651H174.366V49.3976H178.369V50.9026H172.563V42.7651H172.56Z" fill="white"/>
<path d="M115.519 59.7133C115.519 60.7918 115.216 61.6053 114.606 62.1506C113.995 62.699 113.13 62.9701 112.014 62.9701C110.898 62.9701 110.024 62.699 109.419 62.1598C108.818 61.6205 108.518 60.804 108.518 59.7103V54.6499H110.324V59.7103C110.324 60.2434 110.441 60.67 110.674 60.9929C110.907 61.3158 111.355 61.4773 112.014 61.4773C112.673 61.4773 113.084 61.3402 113.336 61.0599C113.59 60.7827 113.716 60.3318 113.716 59.7103V54.6499H115.523V59.7103L115.519 59.7133Z" fill="white"/>
<path d="M116.967 54.6528H118.761L122.187 60.1123H122.208V54.6528H123.898V62.7903H122.092L118.675 57.343H118.654V62.7903H116.964V54.6528H116.967Z" fill="white"/>
<path d="M125.612 54.6528H127.419V62.7903H125.612V54.6528Z" fill="white"/>
<path d="M133.175 62.7874H131.139L128.483 54.6499H130.335L132.163 60.3714H132.185L134.037 54.6499H135.899L133.172 62.7874H133.175Z" fill="white"/>
<path d="M136.84 54.6528H142.98V56.1579H138.644V57.9005H142.621V59.2897H138.644V61.2853H143.072V62.7903H136.84V54.6528Z" fill="white"/>
<path d="M144.415 54.6528H148.841C149.562 54.6528 150.141 54.8691 150.583 55.3018C151.024 55.7344 151.245 56.2675 151.245 56.8982C151.245 57.9157 150.813 58.5951 149.945 58.9394V58.9607C150.666 59.1587 151.064 59.7924 151.141 60.8648C151.141 60.9105 151.147 61.0233 151.159 61.2061C151.172 61.3889 151.181 61.5351 151.187 61.6448C151.193 61.7544 151.209 61.8915 151.233 62.0561C151.255 62.2206 151.288 62.3607 151.331 62.4826C151.374 62.6044 151.426 62.708 151.488 62.7903H149.681C149.62 62.638 149.574 62.4552 149.543 62.2389C149.513 62.0225 149.485 61.7697 149.463 61.4803C149.442 61.1908 149.417 60.9776 149.396 60.8435C149.335 60.4018 149.203 60.088 149 59.8991C148.798 59.7102 148.473 59.6127 148.028 59.6127H146.222V62.7933H144.415V54.6559V54.6528ZM146.222 58.3331H148.2C148.62 58.3331 148.933 58.2387 149.138 58.0528C149.341 57.867 149.442 57.5715 149.442 57.1693C149.442 56.4168 149.028 56.0421 148.2 56.0421H146.222V58.3331Z" fill="white"/>
<path d="M153.96 60.088C153.96 60.5968 154.131 60.9746 154.472 61.2213C154.812 61.4681 155.248 61.593 155.778 61.593C156.03 61.593 156.266 61.5686 156.487 61.5199C156.704 61.4712 156.907 61.3645 157.097 61.2061C157.284 61.0477 157.379 60.8375 157.379 60.5785C157.379 60.4353 157.342 60.3043 157.269 60.1916C157.195 60.0789 157.112 59.9844 157.02 59.9113C156.928 59.8382 156.787 59.7681 156.594 59.695C156.404 59.6219 156.241 59.5701 156.112 59.5366C155.984 59.5031 155.787 59.4543 155.527 59.3873C155.266 59.3233 155.07 59.2715 154.941 59.235C154.594 59.1527 154.294 59.0582 154.039 58.9547C153.782 58.8511 153.527 58.714 153.276 58.5403C153.021 58.3667 152.828 58.1412 152.696 57.867C152.561 57.5928 152.494 57.279 152.494 56.9226C152.494 56.1396 152.8 55.5333 153.414 55.1038C154.027 54.6742 154.745 54.4609 155.563 54.4609C156.168 54.4609 156.711 54.5432 157.186 54.7108C157.661 54.8783 158.057 55.1647 158.376 55.5699C158.695 55.9751 158.854 56.4808 158.854 57.081H157.106C157.06 56.2615 156.52 55.8502 155.484 55.8502C155.153 55.8502 154.864 55.9263 154.616 56.0787C154.367 56.231 154.242 56.4625 154.242 56.7733C154.242 57.0841 154.374 57.2882 154.637 57.407C154.901 57.5258 155.585 57.7238 156.689 58.0041C158.314 58.3393 159.127 59.1283 159.127 60.3744C159.127 61.1482 158.83 61.7758 158.235 62.2541C157.64 62.7324 156.799 62.9731 155.711 62.9731C155.241 62.9731 154.803 62.9152 154.389 62.8025C153.975 62.6898 153.604 62.5192 153.273 62.2968C152.941 62.0713 152.681 61.7697 152.49 61.3919C152.3 61.0111 152.205 60.5785 152.214 60.0941H153.963L153.96 60.088Z" fill="white"/>
<path d="M160.431 54.6528H162.237V62.7903H160.431V54.6528Z" fill="white"/>
<path d="M166.107 56.1549H163.648V54.6499H170.373V56.1549H167.914V62.7874H166.107V56.1549Z" fill="white"/>
<path d="M174.143 59.6218L171.131 54.6528H173.155L175.075 57.867L176.982 54.6528H178.994L175.946 59.6675V62.7903H174.139V59.6218H174.143Z" fill="white"/>
<path d="M183.177 58.7537C183.177 57.5168 183.542 56.4901 184.269 55.6766C184.996 54.8632 185.978 54.458 187.213 54.458C188.449 54.458 189.428 54.8632 190.158 55.6766C190.884 56.4901 191.249 57.5137 191.249 58.7537C191.249 59.9937 190.884 60.9747 190.158 61.7729C189.428 62.5711 188.449 62.9702 187.213 62.9702C185.978 62.9702 184.999 62.5711 184.269 61.7729C183.539 60.9747 183.177 59.9693 183.177 58.7537ZM184.984 58.7537C184.984 59.5123 185.168 60.1582 185.536 60.6852C185.904 61.2123 186.462 61.4774 187.213 61.4774C187.965 61.4774 188.523 61.2123 188.891 60.6852C189.259 60.1582 189.443 59.5123 189.443 58.7537C189.443 58.251 189.373 57.7971 189.231 57.3919C189.09 56.9867 188.845 56.6455 188.502 56.3713C188.155 56.0971 187.726 55.96 187.213 55.96C186.701 55.96 186.272 56.0971 185.925 56.3713C185.582 56.6455 185.337 56.9836 185.195 57.3919C185.054 57.7971 184.984 58.251 184.984 58.7537Z" fill="white"/>
<path d="M192.488 54.6529H198.26V56.158H194.292V58.0377H197.73V59.427H194.292V62.7874H192.485V54.6499L192.488 54.6529Z" fill="white"/>
<path d="M108.552 66.541H110.358V69.6638H113.682V66.541H115.489V74.6785H113.682V71.1688H110.358V74.6785H108.552V66.541Z" fill="white"/>
<path d="M116.611 70.6414C116.611 69.4045 116.976 68.3778 117.703 67.5643C118.43 66.7509 119.411 66.3457 120.647 66.3457C121.883 66.3457 122.862 66.7509 123.591 67.5643C124.318 68.3778 124.683 69.4014 124.683 70.6414C124.683 71.8814 124.318 72.8624 123.591 73.6606C122.862 74.4588 121.883 74.8579 120.647 74.8579C119.411 74.8579 118.433 74.4588 117.703 73.6606C116.973 72.8624 116.611 71.857 116.611 70.6414ZM118.415 70.6414C118.415 71.4 118.599 72.0459 118.967 72.5729C119.335 73.1 119.893 73.3651 120.644 73.3651C121.396 73.3651 121.954 73.1 122.322 72.5729C122.69 72.0459 122.874 71.4 122.874 70.6414C122.874 70.1387 122.803 69.6848 122.662 69.2796C122.521 68.8744 122.276 68.5332 121.932 68.259C121.586 67.9848 121.156 67.8477 120.644 67.8477C120.132 67.8477 119.703 67.9848 119.356 68.259C119.013 68.5332 118.767 68.8713 118.626 69.2796C118.485 69.6848 118.415 70.1387 118.415 70.6414Z" fill="white"/>
<path d="M131.627 69.2735C131.565 68.8713 131.363 68.5332 131.016 68.259C130.673 67.9848 130.277 67.8477 129.833 67.8477C129.32 67.8477 128.891 67.9848 128.544 68.259C128.201 68.5332 127.956 68.8713 127.815 69.2796C127.673 69.6848 127.603 70.1387 127.603 70.6414C127.603 71.4 127.787 72.0459 128.155 72.5729C128.523 73.1 129.081 73.3651 129.833 73.3651C130.369 73.3651 130.795 73.2005 131.114 72.8746C131.433 72.5486 131.627 72.1038 131.694 71.5401H133.442C133.35 72.5668 132.979 73.3742 132.326 73.9683C131.676 74.5624 130.841 74.8579 129.829 74.8579C128.597 74.8579 127.615 74.4588 126.885 73.6606C126.155 72.8624 125.793 71.857 125.793 70.6414C125.793 69.4258 126.158 68.3778 126.885 67.5643C127.612 66.7509 128.593 66.3457 129.829 66.3457C130.756 66.3457 131.553 66.6047 132.215 67.1256C132.878 67.6466 133.264 68.3625 133.372 69.2735H131.624H131.627Z" fill="white"/>
<path d="M134.798 66.541H136.604V69.6638H139.929V66.541H141.735V74.6785H139.929V71.1688H136.604V74.6785H134.798V66.541Z" fill="white"/>
<path d="M143.903 66.541H145.71V74.6785H143.903V66.541Z" fill="white"/>
<path d="M147.878 66.541H150.42L152.34 72.1376H152.362L154.177 66.541H156.72V74.6785H155.03V68.9113H155.008L152.997 74.6785H151.604L149.592 68.9692H149.571V74.6785H147.881V66.541H147.878Z" fill="white"/>
<path d="M158.891 66.541H160.697V74.6785H158.891V66.541Z" fill="white"/>
<path d="M162.869 66.541H164.663L168.089 72.0005H168.11V66.541H169.8V74.6785H167.993L164.577 69.2312H164.556V74.6785H162.866V66.541H162.869Z" fill="white"/>
<path d="M171.376 66.541H173.183V69.6638H176.507V66.541H178.313V74.6785H176.507V71.1688H173.183V74.6785H171.376V66.541Z" fill="white"/>
<path d="M189.645 69.2735C189.584 68.8713 189.382 68.5332 189.035 68.259C188.692 67.9848 188.296 67.8477 187.851 67.8477C187.339 67.8477 186.91 67.9848 186.563 68.259C186.22 68.5332 185.974 68.8713 185.833 69.2796C185.692 69.6848 185.622 70.1387 185.622 70.6414C185.622 71.4 185.806 72.0459 186.174 72.5729C186.542 73.1 187.1 73.3651 187.851 73.3651C188.388 73.3651 188.814 73.2005 189.133 72.8746C189.452 72.5486 189.646 72.1038 189.713 71.5401H191.461C191.369 72.5668 190.998 73.3742 190.345 73.9683C189.695 74.5624 188.86 74.8579 187.848 74.8579C186.615 74.8579 185.634 74.4588 184.904 73.6606C184.174 72.8624 183.812 71.857 183.812 70.6414C183.812 69.4258 184.177 68.3778 184.904 67.5643C185.631 66.7509 186.612 66.3457 187.848 66.3457C188.775 66.3457 189.572 66.6047 190.234 67.1256C190.897 67.6466 191.283 68.3625 191.391 69.2735H189.642H189.645Z" fill="white"/>
<path d="M192.59 66.541H194.396V74.6785H192.59V66.541Z" fill="white"/>
<path d="M198.036 68.0426H195.577V66.5376H202.302V68.0426H199.843V74.6751H198.036V68.0426Z" fill="white"/>
<path d="M206.072 71.51L203.06 66.541H205.084L207.004 69.7552L208.912 66.541H210.923L207.875 71.5557V74.6785H206.069V71.51H206.072Z" fill="white"/>
<path fill-rule="evenodd" clip-rule="evenodd" d="M71.1512 74.6781C57.7122 77.615 58.1109 84.3937 42.2491 84.9299C19.8763 85.6885 13.7027 61.8398 0 53.3611C20.2137 43.874 31.0918 68.07 43.0189 73.8982C43.1569 73.9652 43.2918 74.0292 43.4298 74.0901C43.4881 74.1175 43.5464 74.1419 43.6016 74.1663C43.758 74.2333 43.9113 74.3003 44.0677 74.3613L44.1812 74.4039C44.356 74.4709 44.5308 74.5319 44.7056 74.5898L44.77 74.6111C44.9571 74.672 45.1473 74.7299 45.3374 74.7786L45.365 74.7847C45.5643 74.8365 45.7637 74.8853 45.963 74.9249H45.9661L45.9845 74.9279C46.1685 74.9645 46.3495 75.0011 46.5304 75.0346L46.6009 75.0468C46.7574 75.0772 46.9138 75.1046 47.0702 75.1321L47.2174 75.1564C47.3401 75.1778 47.4627 75.196 47.5823 75.2174C47.6774 75.2326 47.7694 75.2478 47.8645 75.26L48.0332 75.2844L48.0792 75.2905C48.2295 75.3118 48.3767 75.3331 48.5239 75.3514L48.5668 75.3575C52.8359 75.912 55.915 75.4611 58.6384 74.9036L58.6752 74.8975C59.6504 74.6964 60.5828 74.4801 61.5059 74.2942H61.5151C61.6194 74.2699 61.7267 74.2485 61.831 74.2303C61.9322 74.2089 62.0365 74.1907 62.1377 74.1724L62.1683 74.1663C62.2695 74.148 62.3707 74.1297 62.4719 74.1114H62.4873C62.6928 74.0718 62.9013 74.0383 63.1099 74.0048L63.1467 73.9987C63.2479 73.9835 63.3491 73.9683 63.4503 73.9561H63.4717C63.576 73.9378 63.6803 73.9256 63.7846 73.9134C63.8858 73.9012 63.99 73.889 64.0912 73.8769H64.1342C64.2385 73.8616 64.3427 73.8525 64.447 73.8433H64.4501C64.5605 73.8342 64.6678 73.8251 64.7782 73.8159H64.7844C64.8886 73.8068 64.996 73.8007 65.1003 73.7976H65.137C65.2444 73.7915 65.3487 73.7855 65.456 73.7824H65.4683C65.5756 73.7794 65.686 73.7763 65.7934 73.7763H65.8087C65.9191 73.7763 66.0295 73.7763 66.1399 73.7763H66.1706C66.3975 73.7794 66.6245 73.7885 66.8576 73.8007H66.876C66.9894 73.8098 67.106 73.8159 67.2225 73.8251H67.2532C67.4893 73.8464 67.7316 73.8708 67.9739 73.9043H67.9923C68.1119 73.9226 68.2315 73.9378 68.3511 73.9561L68.3941 73.9622C68.6394 73.9987 68.8878 74.0444 69.1393 74.0932L69.17 74.0993C69.2926 74.1236 69.4184 74.1511 69.5441 74.1785L69.5901 74.1876C69.8447 74.2455 70.1023 74.3095 70.366 74.3795L70.4212 74.3948C70.5501 74.4283 70.6789 74.4649 70.8077 74.5045L70.8598 74.5197C70.9488 74.5441 71.0346 74.5715 71.1236 74.5989L71.1481 74.669L71.1512 74.6781ZM55.3844 33.7867C56.7216 33.7867 57.8073 34.8622 57.8073 36.1905C57.8073 37.5188 56.7247 38.5973 55.3844 38.5973C54.0442 38.5973 52.9647 37.5218 52.9647 36.1905C52.9647 34.8591 54.0473 33.7867 55.3844 33.7867ZM55.3844 31.2489C54.0105 31.2489 52.7653 31.8034 51.8667 32.696C50.9651 33.5917 50.4069 34.8286 50.4069 36.1905C50.4069 37.5523 50.9651 38.7923 51.8637 39.6849C51.9342 39.755 52.0048 39.822 52.0784 39.889L52.5476 39.365C52.4832 39.3102 52.4218 39.2493 52.3605 39.1914C51.5877 38.4236 51.1092 37.3634 51.1092 36.1935C51.1092 35.0236 51.5877 33.9604 52.3574 33.1957C53.1303 32.4279 54.1976 31.9527 55.3752 31.9527C56.5529 31.9527 57.6232 32.4279 58.393 33.1957C59.1659 33.9634 59.6412 35.0236 59.6412 36.1935C59.6412 37.3634 59.1628 38.4267 58.39 39.1914C58.3317 39.2493 58.2734 39.3041 58.2151 39.3559L58.6844 39.8799C58.7549 39.819 58.8224 39.755 58.8899 39.688C59.7915 38.7923 60.3466 37.5584 60.3466 36.1935C60.3466 34.8286 59.7884 33.5948 58.8868 32.6991C57.9851 31.8034 56.743 31.2519 55.3691 31.2519L55.3844 31.2489ZM56.8259 29.2747L56.694 28.3181L56.6602 28.0683L56.4118 28.0195C56.1266 27.9647 55.7525 27.9403 55.3875 27.9403C55.0225 27.9403 54.6392 27.9677 54.3601 28.0195L54.1117 28.0683L54.0779 28.3181L53.9461 29.2747C53.8111 29.3021 53.6793 29.3326 53.5504 29.3661C53.4155 29.4027 53.2836 29.4423 53.1548 29.4819L52.5568 28.7202L52.4034 28.5222L52.1642 28.6045C51.8974 28.6959 51.557 28.8604 51.235 29.0462C50.9129 29.229 50.6001 29.4392 50.3854 29.6251L50.1953 29.7896L50.2904 30.0211L50.6584 30.9199C50.5572 31.0113 50.4591 31.1027 50.3609 31.1971C50.2658 31.2916 50.1708 31.3921 50.0788 31.4926L49.174 31.127L48.941 31.0326L48.7753 31.2215C48.5883 31.4347 48.3767 31.7455 48.1926 32.0654C48.0086 32.3822 47.843 32.7174 47.751 32.9885L47.6682 33.2261L47.8676 33.3785L48.6343 33.9695C48.5913 34.0975 48.5515 34.2285 48.5177 34.3625C48.484 34.4905 48.4533 34.6215 48.4257 34.7555L47.4627 34.8865L47.2113 34.92L47.1622 35.1668C47.11 35.4441 47.0824 35.8188 47.0824 36.1874C47.0824 36.5561 47.11 36.9247 47.1622 37.205L47.2113 37.4518L47.4627 37.4853L48.4257 37.6163C48.4533 37.7503 48.484 37.8813 48.5177 38.0093C48.5545 38.1403 48.5913 38.2713 48.6343 38.4023L47.8676 38.9933L47.6682 39.1457L47.751 39.3833C47.843 39.6484 48.0086 39.9865 48.1957 40.3064C48.3797 40.6263 48.5913 40.934 48.7784 41.1503L48.944 41.3423L49.1771 41.2478L50.0788 40.8822C50.1708 40.9858 50.2628 41.0833 50.3578 41.1778C50.4529 41.2722 50.5541 41.3666 50.6523 41.455L50.6339 41.5007L51.1338 40.9432C51.0387 40.8579 50.9436 40.7726 50.8547 40.6842C50.6615 40.4923 50.4836 40.2912 50.3241 40.0901L49.1495 40.5014C49.033 40.343 48.9103 40.1541 48.7999 39.9622C48.6864 39.7672 48.5821 39.5661 48.5024 39.3894L49.4439 38.5729C49.3458 38.3322 49.263 38.0855 49.1924 37.8295C49.125 37.5767 49.0728 37.3208 49.036 37.0618L47.8124 36.8272C47.7909 36.6322 47.7817 36.4098 47.7817 36.1844C47.7817 35.9589 47.794 35.7335 47.8124 35.5385L49.036 35.3039C49.0728 35.045 49.125 34.789 49.1924 34.5362C49.2599 34.2833 49.3427 34.0365 49.4439 33.7928L48.5055 32.9763C48.5852 32.7996 48.6864 32.6016 48.7999 32.4066C48.9134 32.2086 49.036 32.0197 49.1526 31.8643L50.3272 32.2756C50.4897 32.0684 50.6676 31.8704 50.8547 31.6815C51.0448 31.4926 51.2442 31.3159 51.4527 31.1545L51.0387 29.9876C51.1982 29.8718 51.3883 29.75 51.5815 29.6403C51.7778 29.5276 51.9802 29.424 52.1581 29.3448L52.9769 30.2801C53.2223 30.1826 53.4707 30.0973 53.7253 30.0303C53.9798 29.9632 54.2405 29.9114 54.5012 29.8749L54.7343 28.6593C54.9275 28.638 55.1544 28.6288 55.3844 28.6288C55.6144 28.6288 55.8353 28.638 56.0315 28.6593L56.2646 29.8749C56.5253 29.9114 56.7829 29.9632 57.0405 30.0303C57.2982 30.0973 57.5466 30.1826 57.7919 30.2801L58.6108 29.3448C58.7886 29.424 58.9911 29.5245 59.1873 29.6373C59.3836 29.75 59.5738 29.8718 59.7332 29.9876L59.3192 31.1545C59.5339 31.319 59.7332 31.4957 59.9173 31.6785C60.1105 31.8704 60.2883 32.0715 60.4478 32.2726L61.6224 31.8613C61.739 32.0197 61.8616 32.2055 61.9751 32.4036C62.0886 32.5985 62.1898 32.7966 62.2695 32.9763L61.328 33.7928C61.4261 34.0335 61.5089 34.2833 61.5795 34.5362C61.647 34.789 61.6991 35.045 61.7359 35.3039L62.9596 35.5385C62.981 35.7304 62.9902 35.9559 62.9902 36.1844C62.9902 36.4129 62.981 36.6322 62.9596 36.8272L61.7359 37.0618C61.6991 37.3238 61.647 37.5797 61.5795 37.8295C61.512 38.0824 61.4261 38.3322 61.328 38.5729L62.2695 39.3894C62.1898 39.5661 62.0855 39.7672 61.972 39.9622C61.8586 40.1541 61.739 40.343 61.6224 40.5014L60.4478 40.0901C60.2822 40.3034 60.1043 40.5014 59.9203 40.6842C59.8344 40.7695 59.7486 40.8518 59.6566 40.931L60.1258 41.455C60.2239 41.3666 60.3221 41.2752 60.4172 41.1808C60.5153 41.0833 60.6073 40.9858 60.6962 40.8853L61.5979 41.2509L61.831 41.3453L61.9966 41.1534C62.1837 40.9371 62.3953 40.6294 62.5793 40.3095C62.7664 39.9865 62.932 39.6484 63.024 39.3864L63.1068 39.1487L62.9074 38.9964L62.1407 38.4053C62.1837 38.2774 62.2235 38.1464 62.2603 38.0123C62.2941 37.8813 62.3247 37.7503 62.3523 37.6193L63.3153 37.4883L63.5668 37.4548L63.6128 37.208C63.668 36.9278 63.6926 36.5561 63.6926 36.1905C63.6926 35.8249 63.665 35.4471 63.6128 35.1699L63.5668 34.9231L63.3153 34.8896L62.3523 34.7586C62.3247 34.6245 62.2941 34.4935 62.2603 34.3656C62.2235 34.2346 62.1867 34.1036 62.1438 33.9726L62.9105 33.3815L63.1099 33.2292L63.027 32.9916C62.932 32.7204 62.7694 32.3853 62.5824 32.0684C62.3953 31.7455 62.1837 31.4347 61.9997 31.2245L61.834 31.0356L61.601 31.1301L60.6993 31.4957C60.6073 31.3921 60.5122 31.2946 60.4202 31.2002C60.3221 31.1057 60.2239 31.0113 60.1258 30.9229L60.4938 30.0242L60.5889 29.7926L60.3957 29.6281C60.1779 29.4392 59.8651 29.2321 59.5492 29.0493C59.2241 28.8634 58.8868 28.6989 58.62 28.6075L58.3808 28.5252L58.2274 28.7233L57.6324 29.4849C57.5036 29.4423 57.3718 29.4027 57.2368 29.3692C57.108 29.3356 56.9761 29.3052 56.8412 29.2778L56.8259 29.2747ZM55.3844 0.12793C38.7007 20.6711 40.0195 33.8233 46.3893 39.5874L46.3709 39.5387V39.5326L46.3188 39.3985V39.3894L46.2973 39.3407L46.2789 39.2919L46.2483 39.2036V39.1914L46.2268 39.1396L46.2115 39.0878L46.1777 38.9751L46.1409 38.8471L46.1194 38.7709C46.1041 38.7192 46.0888 38.6643 46.0765 38.6125L46.0612 38.5516C46.0458 38.4937 46.0336 38.4358 46.0182 38.3779L46.0029 38.317C45.9906 38.2591 45.9784 38.2043 45.9661 38.1464L45.9569 38.0976C45.9446 38.0337 45.9324 37.9697 45.9201 37.9057L45.914 37.8661C45.9017 37.793 45.8894 37.7229 45.8772 37.6498C45.8649 37.5675 45.8526 37.4883 45.8434 37.4091C45.7913 37.007 45.7668 36.6018 45.7668 36.1935C45.7668 36.1113 45.7668 36.029 45.7668 35.9468C45.7668 35.8645 45.7729 35.7822 45.776 35.703C45.779 35.6208 45.7852 35.5416 45.7913 35.4593C45.7974 35.377 45.8036 35.2978 45.8128 35.2186C45.822 35.1394 45.8312 35.0571 45.8404 34.9779C45.8496 34.8987 45.8618 34.8195 45.8741 34.7403C45.8864 34.6611 45.8986 34.5819 45.914 34.5027C45.9293 34.4235 45.9416 34.3473 45.96 34.2681C45.9753 34.1889 45.9937 34.1127 46.0121 34.0365C46.0305 33.9604 46.0489 33.8842 46.0673 33.808C46.0857 33.7319 46.1072 33.6557 46.1287 33.5795C46.1501 33.5034 46.1716 33.4303 46.1961 33.3541C46.2207 33.281 46.2421 33.2048 46.2697 33.1317C46.3188 32.9824 46.374 32.8362 46.4323 32.693C46.4599 32.6199 46.4905 32.5498 46.5212 32.4767C46.5519 32.4066 46.5825 32.3335 46.6163 32.2634C46.6469 32.1933 46.6807 32.1233 46.7144 32.0532C46.8156 31.843 46.923 31.6389 47.0395 31.4408C47.0794 31.3738 47.1162 31.3068 47.156 31.2428C47.1959 31.1758 47.2358 31.1118 47.2787 31.0478C47.3217 30.9838 47.3615 30.9199 47.4045 30.8559C47.5333 30.664 47.6713 30.4781 47.8124 30.2984C47.8584 30.2374 47.9074 30.1795 47.9565 30.1186C48.0056 30.0607 48.0546 29.9998 48.1068 29.9419C48.1558 29.884 48.208 29.8261 48.2601 29.7713C48.3123 29.7134 48.3644 29.6586 48.4165 29.6037C48.5239 29.4941 48.6312 29.3844 48.7416 29.2808C48.852 29.1742 48.9686 29.0736 49.082 28.9731C49.1403 28.9243 49.1986 28.8726 49.2568 28.8238C49.3765 28.7263 49.4961 28.6319 49.6187 28.5405C49.8027 28.4034 49.9929 28.2724 50.1892 28.1475C50.2536 28.1048 50.321 28.0652 50.3854 28.0256C50.4529 27.986 50.5173 27.9464 50.5848 27.9068C50.7872 27.791 50.9927 27.6844 51.2012 27.5838C51.3423 27.5168 51.4834 27.4528 51.6275 27.3919C51.9158 27.27 52.2102 27.1634 52.5108 27.072C52.5875 27.0476 52.6611 27.0263 52.7377 27.005C52.8144 26.9837 52.8911 26.9623 52.9678 26.9441C53.0444 26.9258 53.1211 26.9045 53.2008 26.8892C53.3572 26.8527 53.5136 26.8222 53.6701 26.7948C53.7498 26.7795 53.8295 26.7674 53.9093 26.7552C53.989 26.743 54.0687 26.7308 54.1485 26.7217C54.308 26.7003 54.4705 26.6851 54.6331 26.6729C54.7159 26.6668 54.7956 26.6607 54.8784 26.6577C54.9612 26.6546 55.044 26.6516 55.1238 26.6485C55.2066 26.6485 55.2894 26.6455 55.3722 26.6455C55.455 26.6455 55.5378 26.6455 55.6206 26.6485C55.7862 26.6516 55.9487 26.6607 56.1113 26.6729C56.1941 26.679 56.2738 26.6851 56.3536 26.6942C56.4333 26.7034 56.5161 26.7125 56.5958 26.7217C56.6756 26.7308 56.7553 26.743 56.8351 26.7552C56.9148 26.7674 56.9945 26.7795 57.0743 26.7948C57.154 26.81 57.2307 26.8222 57.3104 26.8405C57.5466 26.8892 57.7766 26.9441 58.0066 27.008C58.1599 27.0507 58.3102 27.0964 58.4574 27.1482C58.531 27.1726 58.6077 27.2 58.6782 27.2243C58.7518 27.2518 58.8255 27.2792 58.8991 27.3066C58.9727 27.334 59.0432 27.3645 59.1168 27.395C59.1873 27.4254 59.2609 27.4559 59.3315 27.4894C59.402 27.5199 59.4726 27.5534 59.5431 27.5869C59.6136 27.6204 59.6842 27.6539 59.7516 27.6905C59.8222 27.727 59.8897 27.7605 59.9571 27.7971C60.0246 27.8337 60.0921 27.8702 60.1595 27.9098C60.2945 27.986 60.4263 28.0652 60.5552 28.1505C60.684 28.2328 60.8128 28.3181 60.9385 28.4095C61.0029 28.4552 61.0643 28.4978 61.1256 28.5435C61.3096 28.6806 61.4906 28.8238 61.6654 28.9761C61.7236 29.0249 61.7819 29.0767 61.8371 29.1285C61.8954 29.1803 61.9506 29.2321 62.0058 29.2838C62.061 29.3356 62.1162 29.3905 62.1714 29.4453C62.2266 29.5002 62.2787 29.555 62.3339 29.6098C62.3861 29.6647 62.4382 29.7226 62.4903 29.7774C62.5425 29.8353 62.5916 29.8901 62.6437 29.948C62.6928 30.0059 62.7449 30.0638 62.794 30.1247C62.843 30.1826 62.8921 30.2435 62.9381 30.3045C63.0332 30.4233 63.1252 30.5482 63.2141 30.6731C63.2601 30.7371 63.3031 30.798 63.346 30.862C63.3889 30.926 63.4319 30.9899 63.4717 31.0539C63.5147 31.1179 63.5546 31.1849 63.5944 31.2489C63.6343 31.3159 63.6742 31.3799 63.714 31.4469C63.7539 31.514 63.7907 31.581 63.8275 31.648C63.8643 31.715 63.9011 31.7851 63.9348 31.8521C63.9716 31.9222 64.0054 31.9892 64.0391 32.0593C64.0728 32.1294 64.1066 32.1994 64.1373 32.2695C64.1679 32.3396 64.2017 32.4097 64.2323 32.4828C64.263 32.5528 64.2937 32.626 64.3213 32.6991C64.3489 32.7722 64.3765 32.8453 64.4041 32.9184C64.4317 32.9916 64.4562 33.0647 64.4838 33.1378C64.5083 33.2109 64.5329 33.2871 64.5574 33.3602C64.5819 33.4364 64.6034 33.5095 64.6249 33.5856C64.6464 33.6618 64.6678 33.738 64.6862 33.8141C64.7046 33.8903 64.7261 33.9665 64.7414 34.0426C64.7598 34.1188 64.7752 34.198 64.7936 34.2742C64.8089 34.3534 64.8242 34.4295 64.8396 34.5088C64.8549 34.588 64.8672 34.6672 64.8794 34.7464C64.8917 34.8256 64.904 34.9048 64.9132 34.984C64.9224 35.0632 64.9316 35.1424 64.9408 35.2247C64.95 35.3039 64.9561 35.3862 64.9622 35.4654C64.9684 35.5476 64.9745 35.6269 64.9776 35.7091C64.9806 35.7914 64.9837 35.8736 64.9868 35.9528C64.9868 36.0351 64.9868 36.1174 64.9868 36.1996C64.9868 36.2819 64.9868 36.3611 64.9868 36.4433V36.4525C64.9868 36.5317 64.9806 36.6109 64.9776 36.6901V36.7023C64.9684 36.8577 64.9592 37.0131 64.9408 37.1654V37.1776L64.9377 37.1959C64.9316 37.2659 64.9224 37.336 64.9132 37.4091V37.4152V37.4183V37.4274C64.904 37.5005 64.8917 37.5736 64.8825 37.6468V37.6559L64.8764 37.6833C64.8672 37.7442 64.858 37.8052 64.8457 37.8661L64.8334 37.9301C64.8242 37.9849 64.815 38.0367 64.8028 38.0885L64.7874 38.1647C64.7782 38.2165 64.766 38.2652 64.7537 38.314L64.7292 38.4114L64.7016 38.5303L64.677 38.6278L64.6617 38.6826L64.6371 38.7679L64.6065 38.8776V38.8898L64.5881 38.9416L64.5727 38.9933L64.5298 39.1304L64.5237 39.1457L64.5083 39.1975L64.4562 39.3467L64.4378 39.3955L64.3826 39.5448L64.3642 39.5935C70.7371 33.8294 72.0559 20.6742 55.3691 0.134023L55.3844 0.12793ZM21.7808 21.314C17.6835 41.0041 22.7806 55.9933 39.7618 67.3724V42.8168H47.4689C41.0837 32.827 31.3525 31.2062 21.7808 21.314Z" fill="white"/>
<path fill-rule="evenodd" clip-rule="evenodd" d="M50.1769 42.7104H60.5122V64.9232C60.5122 67.7474 58.1875 70.0567 55.3445 70.0567C52.5016 70.0567 50.1769 67.7474 50.1769 64.9232V42.7104Z" fill="white"/>
<path fill-rule="evenodd" clip-rule="evenodd" d="M92.4382 42.8169H103.157V74.7513H92.4382V63.8811H81.7287V74.7513H71.0101V42.8169H81.7287V53.2576H92.4382V42.8169Z" fill="white"/>
</svg>
