<svg width="148" height="60" viewBox="0 0 148 60" fill="none" xmlns="http://www.w3.org/2000/svg">
  <g clip-path="url(#clip0_536_2066)">
    <path d="M75.7407 30.0967H77.0011V35.8408H75.7407V30.0967Z" fill="white" />
    <path
      d="M78.2744 30.0967H79.5262L81.9164 33.9504H81.9314V30.0967H83.1105V35.8408H81.8501L79.4663 31.9956H79.4513V35.8408H78.2722V30.0967H78.2744Z"
      fill="white" />
    <path
      d="M84.3857 30.0966H86.8573C87.6319 30.0966 88.2589 30.3396 88.7382 30.8278C89.2176 31.316 89.4572 32.0192 89.4572 32.9353C89.4572 33.8042 89.2347 34.5052 88.7917 35.0386C88.3488 35.5719 87.7025 35.8386 86.8573 35.8386H84.3857V30.0945V30.0966ZM85.6461 34.7784H86.7696C87.1761 34.7784 87.5164 34.6386 87.7881 34.3611C88.062 34.0816 88.1968 33.6472 88.1968 33.0579C88.1968 32.4687 88.0706 31.9698 87.816 31.6472C87.5613 31.3224 87.1376 31.1611 86.5449 31.1611H85.6461V34.7805V34.7784Z"
      fill="white" />
    <path
      d="M95.1193 33.6687C95.1193 34.43 94.9075 35.0042 94.4816 35.3891C94.0558 35.7762 93.4524 35.9676 92.6735 35.9676C91.8945 35.9676 91.2847 35.7762 90.8631 35.3956C90.4437 35.0149 90.234 34.4386 90.234 33.6665V30.0945H91.4944V33.6665C91.4944 34.0429 91.5757 34.3439 91.7383 34.5719C91.901 34.7999 92.2134 34.9138 92.6735 34.9138C93.1335 34.9138 93.4203 34.8171 93.5957 34.6192C93.7734 34.4235 93.8611 34.1052 93.8611 33.6665V30.0945H95.1215V33.6665L95.1193 33.6687Z"
      fill="white" />
    <path
      d="M97.2292 33.9332C97.2292 34.2924 97.3491 34.559 97.5866 34.7332C97.8241 34.9074 98.128 34.9956 98.4982 34.9956C98.6737 34.9956 98.8384 34.9784 98.9925 34.944C99.1444 34.9096 99.2857 34.8343 99.4183 34.7225C99.5489 34.6106 99.6152 34.4623 99.6152 34.2795C99.6152 34.1784 99.5895 34.0859 99.5382 34.0063C99.4868 33.9268 99.429 33.8601 99.3648 33.8085C99.3006 33.7569 99.2022 33.7074 99.0674 33.6558C98.9347 33.6042 98.8213 33.5676 98.7314 33.544C98.6416 33.5203 98.5046 33.4859 98.3227 33.4386C98.1408 33.3934 98.0039 33.3569 97.914 33.3311C97.6722 33.273 97.4625 33.2063 97.2849 33.1332C97.1051 33.0601 96.9275 32.9633 96.7521 32.8408C96.5744 32.7182 96.4396 32.559 96.3476 32.3655C96.2535 32.1719 96.2064 31.9504 96.2064 31.6988C96.2064 31.1461 96.4204 30.7182 96.8483 30.4149C97.2763 30.1117 97.7771 29.9612 98.3484 29.9612C98.77 29.9612 99.1487 30.0192 99.4804 30.1375C99.8121 30.2558 100.088 30.458 100.311 30.744C100.533 31.03 100.644 31.387 100.644 31.8106H99.4248C99.3927 31.2321 99.016 30.9418 98.2928 30.9418C98.0617 30.9418 97.8605 30.9956 97.6872 31.1031C97.5139 31.2106 97.4261 31.3741 97.4261 31.5934C97.4261 31.8128 97.5181 31.9569 97.7022 32.0408C97.8862 32.1246 98.3634 32.2644 99.1337 32.4623C100.268 32.6988 100.835 33.2558 100.835 34.1354C100.835 34.6816 100.627 35.1246 100.212 35.4623C99.7971 35.7999 99.2108 35.9698 98.4511 35.9698C98.1237 35.9698 97.8177 35.9289 97.5288 35.8494C97.2399 35.7698 96.981 35.6493 96.7499 35.4924C96.5188 35.3332 96.3369 35.1203 96.2042 34.8537C96.0716 34.5848 96.0052 34.2795 96.0117 33.9375H97.2314L97.2292 33.9332Z"
      fill="white" />
    <path d="M102.752 31.159H101.036V30.0967H105.729V31.159H104.013V35.8408H102.752V31.159Z" fill="white" />
    <path
      d="M106.561 30.0967H109.649C110.152 30.0967 110.556 30.2494 110.865 30.5547C111.173 30.8601 111.327 31.2365 111.327 31.6816C111.327 32.3999 111.025 32.8795 110.419 33.1225V33.1375C110.922 33.2773 111.201 33.7246 111.254 34.4816C111.254 34.5139 111.258 34.5935 111.267 34.7225C111.275 34.8515 111.282 34.9547 111.286 35.0322C111.29 35.1096 111.301 35.2064 111.318 35.3225C111.333 35.4386 111.357 35.5375 111.387 35.6236C111.417 35.7096 111.453 35.7827 111.496 35.8408H110.235C110.193 35.7332 110.161 35.6042 110.139 35.4515C110.118 35.2988 110.098 35.1203 110.084 34.916C110.069 34.7117 110.051 34.5612 110.036 34.4666C109.994 34.1547 109.902 33.9332 109.76 33.7999C109.619 33.6666 109.392 33.5978 109.082 33.5978H107.822V35.8429H106.561V30.0988V30.0967ZM107.82 32.6945H109.2C109.493 32.6945 109.711 32.6279 109.855 32.4967C109.996 32.3655 110.066 32.1569 110.066 31.873C110.066 31.3418 109.778 31.0773 109.2 31.0773H107.82V32.6945Z"
      fill="white" />
    <path d="M112.125 30.0967H113.385V35.8408H112.125V30.0967Z" fill="white" />
    <path
      d="M116.349 30.0967H117.642L119.784 35.8408H118.476L118.044 34.5612H115.902L115.452 35.8408H114.186L116.351 30.0967H116.349ZM116.229 33.6193H117.714L116.993 31.5117H116.978L116.231 33.6193H116.229Z"
      fill="white" />
    <path d="M120.402 30.0967H121.662V34.7784H124.455V35.8408H120.404V30.0967H120.402Z" fill="white" />
    <path
      d="M80.6025 42.06C80.6025 42.8213 80.3906 43.3955 79.9648 43.7805C79.539 44.1676 78.9355 44.359 78.1566 44.359C77.3777 44.359 76.7678 44.1676 76.3463 43.7869C75.9269 43.4063 75.7172 42.8299 75.7172 42.0579V38.4858H76.9776V42.0579C76.9776 42.4342 77.0589 42.7353 77.2215 42.9633C77.3841 43.1912 77.6965 43.3052 78.1566 43.3052C78.6167 43.3052 78.9034 43.2084 79.0789 43.0106C79.2565 42.8149 79.3442 42.4966 79.3442 42.0579V38.4858H80.6046V42.0579L80.6025 42.06Z"
      fill="white" />
    <path
      d="M81.6125 38.488H82.8643L85.2546 42.3418H85.2695V38.488H86.4486V44.2321H85.1882L82.8044 40.387H82.7894V44.2321H81.6104V38.488H81.6125Z"
      fill="white" />
    <path d="M87.6448 38.488H88.9052V44.2321H87.6448V38.488Z" fill="white" />
    <path
      d="M92.9217 44.2299H91.5008L89.6477 38.4858H90.9402L92.2156 42.5245H92.2305L93.523 38.4858H94.8219L92.9196 44.2299H92.9217Z"
      fill="white" />
    <path
      d="M95.4789 38.488H99.7629V39.5504H96.7371V40.7805H99.5125V41.7612H96.7371V43.1698H99.8271V44.2321H95.4789V38.488Z"
      fill="white" />
    <path
      d="M100.764 38.488H103.852C104.355 38.488 104.76 38.6407 105.068 38.9461C105.376 39.2515 105.53 39.6278 105.53 40.073C105.53 40.7913 105.228 41.2708 104.623 41.5138V41.5289C105.125 41.6687 105.404 42.116 105.457 42.873C105.457 42.9052 105.461 42.9848 105.47 43.1138C105.479 43.2429 105.485 43.3461 105.489 43.4235C105.494 43.5009 105.504 43.5977 105.521 43.7138C105.536 43.83 105.56 43.9289 105.59 44.0149C105.62 44.1009 105.656 44.1741 105.699 44.2321H104.439C104.396 44.1246 104.364 43.9956 104.342 43.8429C104.321 43.6902 104.302 43.5117 104.287 43.3074C104.272 43.1031 104.255 42.9526 104.24 42.8579C104.197 42.5461 104.105 42.3246 103.964 42.1913C103.822 42.0579 103.595 41.9891 103.285 41.9891H102.025V44.2343H100.764V38.4902V38.488ZM102.025 41.0859H103.405C103.698 41.0859 103.916 41.0192 104.06 40.888C104.201 40.7569 104.272 40.5483 104.272 40.2644C104.272 39.7332 103.983 39.4687 103.405 39.4687H102.025V41.0859Z"
      fill="white" />
    <path
      d="M107.424 42.3246C107.424 42.6837 107.543 42.9504 107.781 43.1246C108.018 43.2988 108.322 43.3869 108.693 43.3869C108.868 43.3869 109.033 43.3697 109.187 43.3353C109.339 43.3009 109.48 43.2257 109.613 43.1138C109.743 43.002 109.81 42.8536 109.81 42.6708C109.81 42.5697 109.784 42.4773 109.732 42.3977C109.681 42.3181 109.623 42.2515 109.559 42.1999C109.495 42.1482 109.397 42.0988 109.262 42.0472C109.129 41.9956 109.016 41.959 108.926 41.9353C108.836 41.9117 108.699 41.8773 108.517 41.83C108.335 41.7848 108.198 41.7482 108.108 41.7224C107.867 41.6644 107.657 41.5977 107.479 41.5246C107.299 41.4515 107.122 41.3547 106.946 41.2321C106.769 41.1095 106.634 40.9504 106.542 40.7568C106.448 40.5633 106.401 40.3418 106.401 40.0902C106.401 39.5375 106.615 39.1095 107.043 38.8063C107.471 38.5031 107.971 38.3525 108.543 38.3525C108.964 38.3525 109.343 38.4106 109.675 38.5289C110.006 38.6472 110.282 38.8493 110.505 39.1353C110.728 39.4214 110.839 39.7783 110.839 40.202H109.619C109.587 39.6235 109.21 39.3332 108.487 39.3332C108.256 39.3332 108.055 39.3869 107.882 39.4945C107.708 39.602 107.62 39.7654 107.62 39.9848C107.62 40.2042 107.712 40.3482 107.896 40.4321C108.081 40.516 108.558 40.6558 109.328 40.8536C110.462 41.0902 111.029 41.6472 111.029 42.5267C111.029 43.073 110.822 43.516 110.407 43.8536C109.991 44.1912 109.405 44.3611 108.645 44.3611C108.318 44.3611 108.012 44.3203 107.723 44.2407C107.434 44.1611 107.175 44.0407 106.944 43.8837C106.713 43.7246 106.531 43.5117 106.399 43.245C106.266 42.9762 106.2 42.6708 106.206 42.3289H107.426L107.424 42.3246Z"
      fill="white" />
    <path d="M111.939 38.488H113.199V44.2321H111.939V38.488Z" fill="white" />
    <path d="M115.9 39.5482H114.183V38.4858H118.876V39.5482H117.16V44.2299H115.9V39.5482Z" fill="white" />
    <path
      d="M121.506 41.9956L119.405 38.488H120.817L122.157 40.7569L123.488 38.488H124.891L122.764 42.0278V44.2321H121.504V41.9956H121.506Z"
      fill="white" />
    <path
      d="M127.81 41.3826C127.81 40.5095 128.065 39.7848 128.572 39.2106C129.079 38.6364 129.764 38.3503 130.626 38.3503C131.489 38.3503 132.171 38.6364 132.681 39.2106C133.188 39.7848 133.442 40.5073 133.442 41.3826C133.442 42.2579 133.188 42.9503 132.681 43.5138C132.171 44.0772 131.489 44.3589 130.626 44.3589C129.764 44.3589 129.081 44.0772 128.572 43.5138C128.063 42.9503 127.81 42.2407 127.81 41.3826ZM129.071 41.3826C129.071 41.9181 129.199 42.374 129.456 42.746C129.713 43.1181 130.102 43.3052 130.626 43.3052C131.151 43.3052 131.54 43.1181 131.797 42.746C132.054 42.374 132.182 41.9181 132.182 41.3826C132.182 41.0278 132.133 40.7073 132.034 40.4213C131.936 40.1353 131.765 39.8944 131.525 39.7009C131.283 39.5073 130.984 39.4106 130.626 39.4106C130.269 39.4106 129.969 39.5073 129.727 39.7009C129.488 39.8944 129.317 40.1331 129.218 40.4213C129.12 40.7073 129.071 41.0278 129.071 41.3826Z"
      fill="white" />
    <path
      d="M134.307 38.488H138.334V39.5504H135.565V40.8772H137.964V41.8579H135.565V44.2299H134.305V38.4858L134.307 38.488Z"
      fill="white" />
    <path
      d="M75.7407 46.8794H77.0011V49.0837H79.3207V46.8794H80.5811V52.6235H79.3207V50.1461H77.0011V52.6235H75.7407V46.8794Z"
      fill="white" />
    <path
      d="M81.3643 49.7742C81.3643 48.9011 81.6189 48.1764 82.1261 47.6022C82.6332 47.028 83.318 46.7419 84.1803 46.7419C85.0427 46.7419 85.7253 47.028 86.2346 47.6022C86.7418 48.1764 86.9964 48.8989 86.9964 49.7742C86.9964 50.6495 86.7418 51.3419 86.2346 51.9054C85.7253 52.4688 85.0427 52.7505 84.1803 52.7505C83.318 52.7505 82.6353 52.4688 82.1261 51.9054C81.6168 51.3419 81.3643 50.6323 81.3643 49.7742ZM82.6225 49.7742C82.6225 50.3097 82.7509 50.7656 83.0077 51.1376C83.2645 51.5097 83.6539 51.6968 84.1782 51.6968C84.7025 51.6968 85.0919 51.5097 85.3487 51.1376C85.6055 50.7656 85.7339 50.3097 85.7339 49.7742C85.7339 49.4194 85.6847 49.0989 85.5862 48.8129C85.4878 48.5269 85.3166 48.286 85.0769 48.0925C84.8351 47.8989 84.5355 47.8022 84.1782 47.8022C83.8208 47.8022 83.5212 47.8989 83.2794 48.0925C83.0398 48.286 82.8686 48.5247 82.7701 48.8129C82.6717 49.0989 82.6225 49.4194 82.6225 49.7742Z"
      fill="white" />
    <path
      d="M91.841 48.8086C91.7982 48.5247 91.657 48.286 91.4152 48.0925C91.1755 47.8989 90.8995 47.8022 90.5892 47.8022C90.2318 47.8022 89.9323 47.8989 89.6905 48.0925C89.4508 48.286 89.2796 48.5247 89.1812 48.8129C89.0827 49.0989 89.0335 49.4194 89.0335 49.7742C89.0335 50.3097 89.1619 50.7656 89.4187 51.1376C89.6755 51.5097 90.0649 51.6968 90.5892 51.6968C90.9637 51.6968 91.2611 51.5807 91.4837 51.3505C91.7062 51.1204 91.841 50.8065 91.8881 50.4086H93.1078C93.0436 51.1333 92.7847 51.7032 92.3289 52.1226C91.8753 52.5419 91.2932 52.7505 90.5871 52.7505C89.7268 52.7505 89.0421 52.4688 88.5328 51.9054C88.0235 51.3419 87.771 50.6323 87.771 49.7742C87.771 48.9161 88.0256 48.1764 88.5328 47.6022C89.0399 47.028 89.7247 46.7419 90.5871 46.7419C91.2333 46.7419 91.7897 46.9247 92.2519 47.2925C92.7141 47.6602 92.9837 48.1656 93.0586 48.8086H91.8389H91.841Z"
      fill="white" />
    <path
      d="M94.0537 46.8794H95.3141V49.0837H97.6337V46.8794H98.8941V52.6235H97.6337V50.1461H95.3141V52.6235H94.0537V46.8794Z"
      fill="white" />
    <path d="M100.407 46.8794H101.667V52.6235H100.407V46.8794Z" fill="white" />
    <path
      d="M103.18 46.8794H104.954L106.294 50.8299H106.309L107.576 46.8794H109.35V52.6235H108.17V48.5525H108.155L106.752 52.6235H105.78L104.376 48.5934H104.362V52.6235H103.182V46.8794H103.18Z"
      fill="white" />
    <path d="M110.865 46.8794H112.125V52.6235H110.865V46.8794Z" fill="white" />
    <path
      d="M113.64 46.8794H114.892L117.282 50.7332H117.297V46.8794H118.476V52.6235H117.216L114.832 48.7783H114.817V52.6235H113.638V46.8794H113.64Z"
      fill="white" />
    <path
      d="M119.576 46.8794H120.836V49.0837H123.156V46.8794H124.416V52.6235H123.156V50.1461H120.836V52.6235H119.576V46.8794Z"
      fill="white" />
    <path
      d="M132.323 48.8086C132.28 48.5247 132.139 48.286 131.897 48.0925C131.658 47.8989 131.382 47.8022 131.071 47.8022C130.714 47.8022 130.414 47.8989 130.173 48.0925C129.933 48.286 129.762 48.5247 129.663 48.8129C129.565 49.0989 129.516 49.4194 129.516 49.7742C129.516 50.3097 129.644 50.7656 129.901 51.1376C130.158 51.5097 130.547 51.6968 131.071 51.6968C131.446 51.6968 131.743 51.5807 131.966 51.3505C132.188 51.1204 132.323 50.8065 132.37 50.4086H133.59C133.526 51.1333 133.267 51.7032 132.811 52.1226C132.357 52.5419 131.775 52.7505 131.069 52.7505C130.209 52.7505 129.524 52.4688 129.015 51.9054C128.506 51.3419 128.253 50.6323 128.253 49.7742C128.253 48.9161 128.508 48.1764 129.015 47.6022C129.522 47.028 130.207 46.7419 131.069 46.7419C131.715 46.7419 132.272 46.9247 132.734 47.2925C133.196 47.6602 133.466 48.1656 133.541 48.8086H132.321H132.323Z"
      fill="white" />
    <path d="M134.377 46.8794H135.638V52.6235H134.377V46.8794Z" fill="white" />
    <path d="M138.178 47.9396H136.462V46.8772H141.154V47.9396H139.438V52.6213H138.178V47.9396Z" fill="white" />
    <path
      d="M143.784 50.3869L141.683 46.8794H143.095L144.435 49.1482L145.766 46.8794H147.17L145.043 50.4192V52.6235H143.782V50.3869H143.784Z"
      fill="white" />
    <path fill-rule="evenodd" clip-rule="evenodd"
      d="M49.645 52.6237C40.2681 54.6968 40.5463 59.4817 29.4789 59.8602C13.8685 60.3957 9.56094 43.5613 0 37.5763C14.1039 30.8796 21.694 47.9591 30.016 52.0731C30.1123 52.1204 30.2064 52.1656 30.3027 52.2086C30.3434 52.228 30.384 52.2452 30.4225 52.2624C30.5317 52.3097 30.6387 52.357 30.7478 52.4L30.827 52.4301C30.9489 52.4774 31.0709 52.5204 31.1929 52.5613L31.2378 52.5763C31.3684 52.6194 31.501 52.6602 31.6337 52.6946L31.653 52.6989C31.7921 52.7355 31.9311 52.7699 32.0702 52.7978H32.0724L32.0852 52.8C32.2136 52.8258 32.3399 52.8516 32.4661 52.8753L32.5153 52.8839C32.6245 52.9054 32.7336 52.9247 32.8427 52.9441L32.9454 52.9613C33.031 52.9763 33.1166 52.9892 33.2001 53.0043C33.2664 53.0151 33.3306 53.0258 33.397 53.0344L33.5147 53.0516L33.5468 53.0559C33.6516 53.071 33.7543 53.086 33.857 53.0989L33.887 53.1032C36.8657 53.4946 39.0141 53.1763 40.9143 52.7828L40.94 52.7785C41.6205 52.6366 42.271 52.4839 42.9151 52.3527H42.9215C42.9943 52.3355 43.0692 52.3204 43.1419 52.3075C43.2125 52.2925 43.2853 52.2796 43.3559 52.2667L43.3773 52.2624C43.4479 52.2495 43.5185 52.2366 43.5892 52.2237H43.5999C43.7432 52.1957 43.8887 52.172 44.0343 52.1484L44.0599 52.1441C44.1305 52.1333 44.2012 52.1226 44.2718 52.114H44.2868C44.3595 52.1011 44.4323 52.0925 44.505 52.0839C44.5756 52.0753 44.6484 52.0667 44.719 52.0581H44.749C44.8217 52.0473 44.8945 52.0409 44.9672 52.0344H44.9694C45.0464 52.028 45.1213 52.0215 45.1983 52.0151H45.2026C45.2754 52.0086 45.3503 52.0043 45.423 52.0022H45.4487C45.5236 51.9978 45.5964 51.9935 45.6713 51.9914H45.6798C45.7547 51.9892 45.8317 51.9871 45.9066 51.9871H45.9173C45.9944 51.9871 46.0714 51.9871 46.1484 51.9871H46.1698C46.3282 51.9892 46.4865 51.9957 46.6492 52.0043H46.662C46.7412 52.0108 46.8225 52.0151 46.9038 52.0215H46.9252C47.09 52.0366 47.259 52.0538 47.4281 52.0774H47.4409C47.5244 52.0903 47.6078 52.1011 47.6913 52.114L47.7213 52.1183C47.8924 52.1441 48.0658 52.1763 48.2412 52.2108L48.2626 52.2151C48.3482 52.2323 48.436 52.2516 48.5237 52.271L48.5558 52.2774C48.7334 52.3183 48.9132 52.3634 49.0972 52.4129L49.1357 52.4237C49.2256 52.4473 49.3155 52.4731 49.4053 52.5011L49.4417 52.5118C49.5038 52.529 49.5637 52.5484 49.6257 52.5677L49.6429 52.6172L49.645 52.6237ZM38.6439 23.7591C39.5769 23.7591 40.3344 24.5183 40.3344 25.4559C40.3344 26.3935 39.579 27.1548 38.6439 27.1548C37.7088 27.1548 36.9556 26.3957 36.9556 25.4559C36.9556 24.5161 37.7109 23.7591 38.6439 23.7591ZM38.6439 21.9677C37.6853 21.9677 36.8165 22.3591 36.1895 22.9892C35.5604 23.6215 35.1709 24.4946 35.1709 25.4559C35.1709 26.4172 35.5604 27.2925 36.1874 27.9226C36.2366 27.972 36.2858 28.0194 36.3371 28.0667L36.6645 27.6968C36.6196 27.6581 36.5768 27.6151 36.534 27.5742C35.9948 27.0323 35.6609 26.2839 35.6609 25.4581C35.6609 24.6323 35.9948 23.8817 36.5319 23.3419C37.0711 22.8 37.8158 22.4645 38.6375 22.4645C39.4592 22.4645 40.206 22.8 40.7431 23.3419C41.2824 23.8839 41.6141 24.6323 41.6141 25.4581C41.6141 26.2839 41.2802 27.0344 40.741 27.5742C40.7003 27.6151 40.6597 27.6538 40.619 27.6903L40.9464 28.0602C40.9956 28.0172 41.0427 27.972 41.0898 27.9247C41.7189 27.2925 42.1062 26.4215 42.1062 25.4581C42.1062 24.4946 41.7168 23.6237 41.0877 22.9914C40.4585 22.3591 39.5919 21.9699 38.6332 21.9699L38.6439 21.9677ZM39.6497 20.5742L39.5576 19.8989L39.5341 19.7226L39.3608 19.6882C39.1618 19.6495 38.9007 19.6323 38.6461 19.6323C38.3914 19.6323 38.1239 19.6516 37.9292 19.6882L37.7559 19.7226L37.7323 19.8989L37.6403 20.5742C37.5462 20.5935 37.4542 20.6151 37.3643 20.6387C37.2701 20.6645 37.1781 20.6925 37.0882 20.7204L36.671 20.1828L36.564 20.043L36.3971 20.1011C36.2109 20.1656 35.9734 20.2817 35.7487 20.4129C35.524 20.5419 35.3057 20.6903 35.1559 20.8215L35.0233 20.9376L35.0896 21.1011L35.3464 21.7355C35.2758 21.8 35.2073 21.8645 35.1388 21.9312C35.0725 21.9979 35.0061 22.0688 34.9419 22.1398L34.3107 21.8817L34.1481 21.8151L34.0325 21.9484C33.902 22.0989 33.7543 22.3183 33.6259 22.5441C33.4975 22.7677 33.382 23.0043 33.3178 23.1957L33.26 23.3634L33.3991 23.471L33.9341 23.8882C33.9041 23.9785 33.8763 24.071 33.8528 24.1656C33.8292 24.2559 33.8078 24.3484 33.7886 24.443L33.1166 24.5355L32.9412 24.5591L32.9069 24.7333C32.8706 24.929 32.8513 25.1935 32.8513 25.4538C32.8513 25.714 32.8706 25.9742 32.9069 26.172L32.9412 26.3462L33.1166 26.3699L33.7886 26.4624C33.8078 26.557 33.8292 26.6495 33.8528 26.7398C33.8784 26.8323 33.9041 26.9247 33.9341 27.0172L33.3991 27.4344L33.26 27.5419L33.3178 27.7097C33.382 27.8968 33.4975 28.1355 33.6281 28.3613C33.7565 28.5871 33.9041 28.8043 34.0346 28.957L34.1502 29.0925L34.3128 29.0258L34.9419 28.7677C35.0061 28.8409 35.0703 28.9097 35.1367 28.9763C35.203 29.043 35.2736 29.1097 35.3421 29.172L35.3293 29.2043L35.6781 28.8108C35.6117 28.7505 35.5454 28.6903 35.4833 28.628C35.3485 28.4925 35.2244 28.3505 35.1131 28.2086L34.2936 28.4989C34.2122 28.3871 34.1267 28.2538 34.0496 28.1183C33.9704 27.9806 33.8977 27.8387 33.8421 27.714L34.499 27.1376C34.4305 26.9677 34.3727 26.7935 34.3235 26.6129C34.2764 26.4344 34.2401 26.2538 34.2144 26.071L33.3606 25.9054C33.3456 25.7677 33.3392 25.6108 33.3392 25.4516C33.3392 25.2925 33.3477 25.1333 33.3606 24.9957L34.2144 24.8301C34.2401 24.6473 34.2764 24.4667 34.3235 24.2882C34.3706 24.1097 34.4284 23.9355 34.499 23.7634L33.8442 23.1871C33.8998 23.0624 33.9704 22.9226 34.0496 22.7849C34.1288 22.6452 34.2144 22.5118 34.2957 22.4022L35.1153 22.6925C35.2287 22.5462 35.3528 22.4065 35.4833 22.2731C35.616 22.1398 35.7551 22.0151 35.9006 21.9011L35.6117 21.0774C35.723 20.9957 35.8557 20.9097 35.9905 20.8323C36.1274 20.7527 36.2687 20.6796 36.3928 20.6237L36.9641 21.2839C37.1353 21.2151 37.3086 21.1548 37.4863 21.1075C37.6639 21.0602 37.8458 21.0237 38.0276 20.9978L38.1903 20.1398C38.3251 20.1247 38.4834 20.1183 38.6439 20.1183C38.8044 20.1183 38.9585 20.1247 39.0954 20.1398L39.2581 20.9978C39.44 21.0237 39.6197 21.0602 39.7995 21.1075C39.9792 21.1548 40.1525 21.2151 40.3237 21.2839L40.8951 20.6237C41.0192 20.6796 41.1604 20.7505 41.2974 20.8301C41.4343 20.9097 41.567 20.9957 41.6783 21.0774L41.3894 21.9011C41.5392 22.0172 41.6783 22.1419 41.8066 22.271C41.9415 22.4065 42.0656 22.5484 42.1768 22.6903L42.9964 22.4C43.0777 22.5118 43.1633 22.643 43.2425 22.7828C43.3217 22.9204 43.3923 23.0602 43.4479 23.1871L42.791 23.7634C42.8595 23.9333 42.9172 24.1097 42.9665 24.2882C43.0135 24.4667 43.0499 24.6473 43.0756 24.8301L43.9294 24.9957C43.9444 25.1312 43.9508 25.2903 43.9508 25.4516C43.9508 25.6129 43.9444 25.7677 43.9294 25.9054L43.0756 26.071C43.0499 26.2559 43.0135 26.4366 42.9665 26.6129C42.9194 26.7914 42.8595 26.9677 42.791 27.1376L43.4479 27.714C43.3923 27.8387 43.3195 27.9806 43.2404 28.1183C43.1612 28.2538 43.0777 28.3871 42.9964 28.4989L42.1768 28.2086C42.0613 28.3591 41.9372 28.4989 41.8088 28.628C41.7489 28.6882 41.689 28.7462 41.6248 28.8021L41.9522 29.172C42.0206 29.1097 42.0891 29.0452 42.1554 28.9785C42.2239 28.9097 42.2881 28.8409 42.3502 28.7699L42.9793 29.028L43.1419 29.0946L43.2575 28.9591C43.388 28.8065 43.5357 28.5892 43.6641 28.3634C43.7946 28.1355 43.9101 27.8968 43.9743 27.7118L44.0321 27.5441L43.893 27.4366L43.3581 27.0194C43.388 26.929 43.4158 26.8366 43.4415 26.7419C43.465 26.6495 43.4864 26.557 43.5057 26.4645L44.1776 26.372L44.3531 26.3484L44.3852 26.1742C44.4237 25.9763 44.4408 25.714 44.4408 25.4559C44.4408 25.1979 44.4216 24.9312 44.3852 24.7355L44.3531 24.5613L44.1776 24.5376L43.5057 24.4452C43.4864 24.3505 43.465 24.2581 43.4415 24.1677C43.4158 24.0753 43.3902 23.9828 43.3602 23.8903L43.8952 23.4731L44.0343 23.3656L43.9765 23.1979C43.9101 23.0065 43.7967 22.7699 43.6662 22.5462C43.5357 22.3183 43.388 22.0989 43.2596 21.9505L43.1441 21.8172L42.9814 21.8839L42.3523 22.1419C42.2881 22.0688 42.2218 22 42.1576 21.9333C42.0891 21.8667 42.0206 21.8 41.9522 21.7376L42.2089 21.1032L42.2753 20.9398L42.1405 20.8237C41.9885 20.6903 41.7703 20.5441 41.5499 20.4151C41.323 20.2839 41.0877 20.1677 40.9015 20.1032L40.7346 20.0452L40.6276 20.1849L40.2124 20.7226C40.1226 20.6925 40.0306 20.6645 39.9364 20.6409C39.8465 20.6172 39.7545 20.5957 39.6604 20.5763L39.6497 20.5742ZM38.6439 0C27.003 14.5011 27.9232 23.7849 32.3677 27.8538L32.3548 27.8194V27.8151L32.3185 27.7204V27.714L32.3035 27.6796L32.2906 27.6452L32.2692 27.5828V27.5742L32.2543 27.5376L32.2436 27.5011L32.22 27.4215L32.1944 27.3312L32.1794 27.2774C32.1687 27.2409 32.158 27.2022 32.1494 27.1656L32.1387 27.1226C32.128 27.0817 32.1195 27.0409 32.1088 27L32.0981 26.957C32.0895 26.9161 32.0809 26.8774 32.0724 26.8366L32.066 26.8022C32.0574 26.757 32.0488 26.7118 32.0403 26.6667L32.036 26.6387C32.0274 26.5871 32.0189 26.5376 32.0103 26.486C32.0018 26.428 31.9932 26.372 31.9868 26.3161C31.9504 26.0323 31.9333 25.7462 31.9333 25.4581C31.9333 25.4 31.9333 25.3419 31.9333 25.2839C31.9333 25.2258 31.9376 25.1677 31.9397 25.1118C31.9418 25.0538 31.9461 24.9979 31.9504 24.9398C31.9547 24.8817 31.959 24.8258 31.9654 24.7699C31.9718 24.714 31.9782 24.6559 31.9846 24.6C31.9911 24.5441 31.9996 24.4882 32.0082 24.4323C32.0167 24.3763 32.0253 24.3204 32.036 24.2645C32.0467 24.2086 32.0553 24.1548 32.0681 24.0989C32.0788 24.043 32.0916 23.9892 32.1045 23.9355C32.1173 23.8817 32.1302 23.828 32.143 23.7742C32.1558 23.7204 32.1708 23.6667 32.1858 23.6129C32.2008 23.5591 32.2158 23.5075 32.2329 23.4538C32.25 23.4022 32.265 23.3484 32.2842 23.2968C32.3185 23.1914 32.357 23.0882 32.3976 22.9871C32.4169 22.9355 32.4383 22.886 32.4597 22.8344C32.4811 22.7849 32.5025 22.7333 32.526 22.6839C32.5474 22.6344 32.571 22.5849 32.5945 22.5355C32.6651 22.3871 32.74 22.243 32.8213 22.1032C32.8492 22.0559 32.8748 22.0086 32.9026 21.9634C32.9305 21.9161 32.9583 21.871 32.9882 21.8258C33.0182 21.7806 33.046 21.7355 33.076 21.6903C33.1659 21.5548 33.2621 21.4237 33.3606 21.2968C33.3927 21.2538 33.4269 21.2129 33.4612 21.1699C33.4954 21.129 33.5296 21.086 33.566 21.0452C33.6002 21.0043 33.6366 20.9634 33.673 20.9247C33.7094 20.8839 33.7458 20.8452 33.7821 20.8065C33.857 20.729 33.9319 20.6516 34.009 20.5785C34.086 20.5032 34.1673 20.4323 34.2465 20.3613C34.2871 20.3269 34.3278 20.2903 34.3685 20.2559C34.4519 20.1871 34.5354 20.1204 34.621 20.0559C34.7494 19.9591 34.882 19.8667 35.019 19.7785C35.0639 19.7484 35.111 19.7204 35.1559 19.6925C35.203 19.6645 35.2479 19.6366 35.295 19.6086C35.4363 19.5269 35.5796 19.4516 35.7251 19.3806C35.8236 19.3333 35.922 19.2882 36.0226 19.2452C36.2237 19.1591 36.4292 19.0839 36.6389 19.0194C36.6924 19.0022 36.7437 18.9871 36.7972 18.972C36.8507 18.957 36.9042 18.9419 36.9577 18.929C37.0112 18.9161 37.0647 18.9011 37.1203 18.8903C37.2295 18.8645 37.3386 18.843 37.4477 18.8237C37.5034 18.8129 37.559 18.8043 37.6146 18.7957C37.6703 18.7871 37.7259 18.7785 37.7816 18.772C37.8928 18.757 38.0062 18.7462 38.1197 18.7376C38.1774 18.7333 38.2331 18.729 38.2908 18.7269C38.3486 18.7247 38.4064 18.7226 38.462 18.7204C38.5198 18.7204 38.5776 18.7183 38.6354 18.7183C38.6931 18.7183 38.7509 18.7183 38.8087 18.7204C38.9242 18.7226 39.0377 18.729 39.1511 18.7376C39.2088 18.7419 39.2645 18.7462 39.3201 18.7527C39.3758 18.7591 39.4335 18.7656 39.4892 18.772C39.5448 18.7785 39.6004 18.7871 39.6561 18.7957C39.7117 18.8043 39.7674 18.8129 39.823 18.8237C39.8786 18.8344 39.9321 18.843 39.9878 18.8559C40.1525 18.8903 40.313 18.929 40.4735 18.9742C40.5805 19.0043 40.6854 19.0366 40.7881 19.0731C40.8394 19.0903 40.8929 19.1097 40.9421 19.1269C40.9935 19.1462 41.0449 19.1656 41.0962 19.1849C41.1476 19.2043 41.1968 19.2258 41.2481 19.2473C41.2974 19.2688 41.3487 19.2903 41.3979 19.314C41.4472 19.3355 41.4964 19.3591 41.5456 19.3828C41.5948 19.4065 41.644 19.4301 41.6911 19.4559C41.7403 19.4817 41.7874 19.5054 41.8345 19.5312C41.8815 19.557 41.9286 19.5828 41.9757 19.6108C42.0699 19.6645 42.1619 19.7204 42.2517 19.7806C42.3416 19.8387 42.4315 19.8989 42.5192 19.9634C42.5642 19.9957 42.607 20.0258 42.6498 20.0581C42.7782 20.1548 42.9044 20.2559 43.0264 20.3634C43.067 20.3979 43.1077 20.4344 43.1462 20.471C43.1869 20.5075 43.2254 20.5441 43.2639 20.5806C43.3024 20.6172 43.3409 20.6559 43.3795 20.6946C43.418 20.7333 43.4544 20.772 43.4929 20.8108C43.5292 20.8495 43.5656 20.8903 43.602 20.929C43.6384 20.9699 43.6726 21.0086 43.709 21.0495C43.7432 21.0903 43.7796 21.1312 43.8138 21.1742C43.8481 21.2151 43.8823 21.2581 43.9144 21.3011C43.9808 21.3849 44.045 21.4731 44.107 21.5613C44.1391 21.6065 44.1691 21.6495 44.199 21.6946C44.229 21.7398 44.2589 21.7849 44.2868 21.8301C44.3167 21.8753 44.3445 21.9226 44.3724 21.9677C44.4002 22.0151 44.428 22.0602 44.4558 22.1075C44.4836 22.1548 44.5093 22.2022 44.535 22.2495C44.5607 22.2968 44.5863 22.3462 44.6099 22.3935C44.6356 22.443 44.6591 22.4903 44.6826 22.5398C44.7062 22.5892 44.7297 22.6387 44.7511 22.6882C44.7725 22.7376 44.7961 22.7871 44.8174 22.8387C44.8388 22.8882 44.8602 22.9398 44.8795 22.9914C44.8988 23.043 44.918 23.0946 44.9373 23.1462C44.9565 23.1978 44.9737 23.2495 44.9929 23.3011C45.01 23.3527 45.0272 23.4065 45.0443 23.4581C45.0614 23.5118 45.0764 23.5634 45.0914 23.6172C45.1063 23.671 45.1213 23.7247 45.1341 23.7785C45.147 23.8323 45.162 23.886 45.1727 23.9398C45.1855 23.9935 45.1962 24.0495 45.209 24.1032C45.2197 24.1591 45.2304 24.2129 45.2411 24.2688C45.2518 24.3247 45.2604 24.3806 45.269 24.4366C45.2775 24.4925 45.2861 24.5484 45.2925 24.6043C45.2989 24.6602 45.3053 24.7161 45.3118 24.7742C45.3182 24.8301 45.3225 24.8882 45.3267 24.9441C45.331 25.0022 45.3353 25.0581 45.3374 25.1161C45.3396 25.1742 45.3417 25.2323 45.3439 25.2882C45.3439 25.3462 45.3439 25.4043 45.3439 25.4624C45.3439 25.5204 45.3439 25.5763 45.3439 25.6344V25.6409C45.3439 25.6968 45.3396 25.7527 45.3374 25.8086V25.8172C45.331 25.9269 45.3246 26.0366 45.3118 26.1441V26.1527L45.3096 26.1656C45.3053 26.2151 45.2989 26.2645 45.2925 26.3161V26.3204V26.3226V26.329C45.2861 26.3806 45.2775 26.4323 45.2711 26.4839V26.4903L45.2668 26.5097C45.2604 26.5527 45.254 26.5957 45.2454 26.6387L45.2369 26.6839C45.2304 26.7226 45.224 26.7591 45.2155 26.7957L45.2048 26.8495C45.1983 26.886 45.1898 26.9204 45.1812 26.9548L45.1641 27.0237L45.1448 27.1075L45.1277 27.1763L45.117 27.2151L45.0999 27.2753L45.0785 27.3527V27.3613L45.0657 27.3979L45.055 27.4344L45.025 27.5312L45.0207 27.5419L45.01 27.5785L44.9737 27.6839L44.9608 27.7183L44.9223 27.8237L44.9095 27.8581C49.3561 23.7892 50.2763 14.5032 38.6332 0.00430108L38.6439 0ZM15.1974 14.9548C12.3385 28.8538 15.895 39.4344 27.7434 47.4667V30.1333H33.1209C28.6657 23.0817 21.8759 21.9376 15.1974 14.9548Z"
      fill="white" />
    <path fill-rule="evenodd" clip-rule="evenodd"
      d="M35.0104 30.0581H42.2217V45.7377C42.2217 47.7312 40.5997 49.3613 38.6161 49.3613C36.6324 49.3613 35.0104 47.7312 35.0104 45.7377V30.0581Z"
      fill="white" />
    <path fill-rule="evenodd" clip-rule="evenodd"
      d="M64.4978 30.1333H71.9766V52.6752H64.4978V45.0021H57.0254V52.6752H49.5465V30.1333H57.0254V37.5032H64.4978V30.1333Z"
      fill="white" />
  </g>
  <defs>
    <clipPath id="clip0_536_2066">
      <rect width="147.223" height="60" fill="white" />
    </clipPath>
  </defs>
</svg>