<svg width="221" height="93" viewBox="0 0 221 93" fill="none" xmlns="http://www.w3.org/2000/svg">
<g clip-path="url(#clip0_1315_13912)">
<path d="M52.9699 9.01C54.9799 5.89 57.1499 2.86 59.5099 0C65.0799 6.96 70.1799 14.55 72.7799 23.16C73.8699 26.8 74.2799 30.66 73.7599 34.44C73.2299 37.58 71.7799 40.57 69.5099 42.82C70.1999 40.26 70.2499 37.46 69.0899 35.03C67.6699 31.78 64.4799 29.4 60.9699 28.94C56.5599 28.24 51.9099 30.75 50.0399 34.8C48.7999 37.27 48.7899 40.19 49.5399 42.81C45.9499 39.38 44.6299 34.18 45.0799 29.34C45.7199 21.97 49.0799 15.17 52.9699 9" fill="url(#paint0_linear_1315_13912)"/>
<path d="M23.03 21.58C25.26 23.81 27.56 25.97 29.98 28C34.71 31.98 39.78 35.56 44.25 39.85C46.72 42.21 48.94 44.84 50.79 47.72C48.02 47.76 45.25 47.69 42.47 47.75C42.42 56.27 42.47 64.8 42.45 73.32C35.05 68.38 28.73 61.57 25.2 53.33C20.87 43.37 20.81 32.07 23.02 21.59" fill="url(#paint1_linear_1315_13912)"/>
<path d="M0 56.8C4.37 54.9 9.37 54.16 14.02 55.42C17.32 56.23 20.33 57.94 23.06 59.93C28.97 64.35 33.56 70.19 38.8 75.34C41.12 77.63 43.61 79.84 46.58 81.26C48.29 82.09 50.17 82.4 52.02 82.73C55.68 83.33 59.45 83.21 63.09 82.51C65.46 82.12 67.81 81.56 70.23 81.59C72.27 81.59 74.29 82.03 76.22 82.68C73.12 83.31 70.06 84.2 67.22 85.6C63.82 87.2 60.75 89.45 57.22 90.78C52.88 92.5 48.15 92.88 43.53 92.77C37.22 92.7 31.06 90.24 26.2 86.25C19.12 80.48 14.43 72.51 8.8 65.44C6.24 62.22 3.42 59.15 0.01 56.79" fill="url(#paint2_linear_1315_13912)"/>
<path d="M58.25 30.43C59.1 30.4 59.95 30.4 60.8 30.48L61.07 31.85C61.29 31.9 61.72 32.01 61.94 32.06C62.25 31.71 62.56 31.37 62.86 31.03C63.64 31.4 64.39 31.83 65.08 32.34C64.89 32.78 64.7 33.22 64.51 33.66C65.09 34.29 65.88 34.07 66.61 33.89C67.07 34.57 67.46 35.28 67.84 36.01C67.49 36.3 67.15 36.59 66.8 36.88C66.88 37.21 66.97 37.53 67.05 37.86C67.48 37.92 67.92 37.97 68.35 38.03C68.48 38.9 68.47 39.78 68.37 40.65C67.9 40.72 67.43 40.78 66.96 40.85C66.69 41.68 67.21 42.27 67.84 42.73C67.44 43.45 67.03 44.17 66.57 44.86C66.15 44.73 65.73 44.59 65.32 44.46C65.08 44.59 64.59 44.86 64.34 44.99C64.49 44.53 64.73 44.12 64.95 43.69C65.42 43.84 65.89 43.99 66.36 44.15C66.6 43.7 66.82 43.25 67.04 42.8C66.74 42.52 66.43 42.24 66.13 41.97C66.24 41.45 66.35 40.94 66.46 40.42C66.93 40.3 67.4 40.17 67.86 40.05C67.86 39.56 67.86 39.06 67.86 38.57C67.4 38.47 66.94 38.38 66.49 38.28C66.37 37.74 66.25 37.21 66.13 36.67C66.46 36.38 66.8 36.1 67.13 35.81C66.89 35.4 66.64 35 66.39 34.59C65.97 34.69 65.55 34.8 65.12 34.86C64.68 34.55 64.3 34.16 63.89 33.81C64.04 33.37 64.19 32.92 64.34 32.48C63.91 32.23 63.47 31.99 63.03 31.75C62.71 32.07 62.4 32.4 62.08 32.72C61.56 32.58 61.05 32.44 60.53 32.31C60.45 31.88 60.36 31.45 60.27 31.02C59.78 31.02 59.29 31.02 58.8 31.02C58.7 31.45 58.59 31.88 58.5 32.31C57.97 32.45 57.45 32.59 56.92 32.74C56.64 32.41 56.36 32.08 56.08 31.75C55.63 31.96 55.18 32.19 54.74 32.41C54.86 32.87 54.97 33.33 55.1 33.79C54.73 34.16 54.37 34.54 54.01 34.92C53.57 34.8 53.13 34.67 52.69 34.55C52.43 34.95 52.17 35.36 51.92 35.77C52.27 36.1 52.61 36.42 52.96 36.75C52.82 37.24 52.68 37.72 52.55 38.21C52.12 38.35 51.67 38.44 51.27 38.64C51.19 39.1 51.18 39.57 51.15 40.03C51.61 40.15 52.07 40.27 52.54 40.38C52.67 40.89 52.82 41.39 52.95 41.91C52.61 42.22 52.27 42.53 51.93 42.84C52.19 43.28 52.46 43.71 52.73 44.13C53.15 43.98 53.58 43.84 54 43.69C54.29 44.05 54.58 44.41 54.88 44.77C54.43 44.72 54 44.58 53.56 44.49C53.2 44.62 52.83 44.73 52.47 44.84C51.99 44.13 51.56 43.39 51.17 42.63C51.51 42.36 51.86 42.1 52.2 41.83C52.15 41.5 52.09 41.17 52.04 40.84C51.57 40.76 51.1 40.69 50.63 40.61C50.58 39.77 50.59 38.92 50.63 38.08C51.41 38 52.14 37.78 52.33 36.93C51.95 36.62 51.57 36.3 51.2 35.99C51.56 35.23 51.98 34.5 52.44 33.8C52.88 33.93 53.32 34.06 53.77 34.2C54 33.99 54.24 33.78 54.47 33.57C54.3 33.15 54.12 32.73 53.96 32.31C54.67 31.81 55.43 31.37 56.21 30.99C56.49 31.34 56.77 31.69 57.05 32.05C57.37 31.97 57.68 31.89 58 31.81C58.08 31.34 58.17 30.88 58.26 30.41" fill="url(#paint3_linear_1315_13912)"/>
<path d="M54.2399 40.04C53.7999 37.27 55.9299 34.43 58.7099 34.07C60.8699 33.71 63.1399 34.85 64.1799 36.76C65.2299 38.61 65.0099 41.09 63.6299 42.71C63.4299 43.02 63.0199 42.99 62.7199 43.12C63.2199 42.22 63.8899 41.4 64.1199 40.37C64.7699 37.89 62.9499 35.09 60.4099 34.71C58.0699 34.19 55.5499 35.76 54.9499 38.07C54.7199 39.17 54.7099 40.4 55.2999 41.4C55.6199 42.04 56.2099 42.61 56.0899 43.39C55.1199 42.52 54.3799 41.35 54.2299 40.02" fill="url(#paint4_linear_1315_13912)"/>
<path d="M58.8 36.5C60.9 35.84 63.11 38.15 62.3 40.22C61.75 42.19 58.97 42.98 57.52 41.48C55.8 40.05 56.61 36.94 58.79 36.5" fill="url(#paint5_linear_1315_13912)"/>
<path d="M53.9499 47.85C57.6699 47.88 61.3899 47.77 65.0999 47.92C65.1499 55.3 65.0999 62.69 65.1299 70.07C65.1399 71.49 64.7899 72.96 63.8599 74.08C62.1699 76.33 58.6499 76.83 56.3699 75.2C54.6999 74.08 53.8099 72.03 53.9099 70.05C53.9399 62.65 53.8599 55.25 53.9499 47.85Z" fill="url(#paint6_linear_1315_13912)"/>
<path d="M76.5901 47.85C80.3001 47.85 84.0201 47.85 87.7301 47.85C87.7501 51.78 87.7301 55.71 87.7501 59.64C91.5601 59.66 95.3701 59.67 99.1901 59.64C99.2301 55.74 99.1201 51.83 99.2501 47.93C102.95 47.77 106.67 47.85 110.37 47.89C110.44 56.49 110.38 65.1 110.4 73.7C110.38 76.68 110.45 79.66 110.36 82.64C106.65 82.68 102.93 82.68 99.2201 82.64C99.1601 78.71 99.2201 74.77 99.1901 70.84C95.3801 70.89 91.5701 70.86 87.7601 70.86C87.7301 74.78 87.7601 78.71 87.7401 82.64C84.0201 82.72 80.3101 82.64 76.5901 82.67C76.5901 71.06 76.5901 59.46 76.5901 47.85Z" fill="url(#paint7_linear_1315_13912)"/>
<path d="M114.61 47.84C115.3 47.84 115.99 47.84 116.69 47.84C116.69 50.63 116.71 53.42 116.68 56.21C115.99 56.21 115.3 56.21 114.62 56.2C114.62 53.41 114.62 50.63 114.62 47.84" fill="url(#paint8_linear_1315_13912)"/>
<path d="M185.3 47.84C185.97 47.84 186.64 47.84 187.31 47.84C187.31 50.19 187.31 52.53 187.31 54.88C188.26 54.92 189.2 54.92 190.16 54.92C190.15 55.36 190.14 55.79 190.13 56.23C188.52 56.25 186.91 56.26 185.3 56.23C185.28 53.44 185.3 50.64 185.3 47.85" fill="url(#paint9_linear_1315_13912)"/>
<path d="M119.79 47.84C120.41 47.84 121.03 47.84 121.66 47.84C122.64 49.75 123.63 51.65 124.59 53.57C124.55 51.66 124.41 49.76 124.47 47.85C125.06 47.85 125.65 47.85 126.24 47.85C126.25 50.64 126.25 53.43 126.24 56.22C125.62 56.22 125 56.22 124.39 56.22C123.38 54.35 122.37 52.48 121.51 50.54C121.43 52.43 121.65 54.32 121.56 56.21C120.97 56.22 120.38 56.23 119.8 56.23C119.77 53.44 119.78 50.65 119.8 47.85" fill="url(#paint10_linear_1315_13912)"/>
<path d="M129.36 47.91C131 47.8 132.78 47.57 134.29 48.38C135.49 49.05 135.94 50.51 135.93 51.8C135.93 53.18 135.56 54.74 134.31 55.52C132.83 56.42 131 56.3 129.34 56.19C129.32 53.43 129.31 50.67 129.34 47.91M131.34 48.93C131.29 50.99 131.31 53.06 131.33 55.13C132.09 55.06 133.07 54.98 133.41 54.16C134.07 52.65 133.98 50.84 133.26 49.36C132.66 49.07 132 48.99 131.34 48.93Z" fill="url(#paint11_linear_1315_13912)"/>
<path d="M138.41 47.84C139.08 47.84 139.76 47.84 140.44 47.84C140.49 49.74 140.41 51.63 140.45 53.53C140.42 54.18 140.78 55.09 141.58 54.94C142.23 55.06 142.64 54.36 142.65 53.8C142.71 51.82 142.65 49.83 142.67 47.85C143.35 47.85 144.03 47.85 144.71 47.85C144.71 49.74 144.75 51.63 144.69 53.51C144.69 54.68 143.93 55.89 142.74 56.16C141.63 56.43 140.34 56.38 139.39 55.7C138.62 55.13 138.42 54.1 138.42 53.2C138.4 51.42 138.42 49.64 138.42 47.85" fill="url(#paint12_linear_1315_13912)"/>
<path d="M148.46 48.28C149.65 47.61 151.09 47.7 152.38 47.96C152.3 48.4 152.22 48.84 152.14 49.27C151.22 49.05 149.73 48.72 149.33 49.86C149.33 51.11 150.91 51.2 151.69 51.84C152.94 52.51 153.26 54.4 152.14 55.34C150.79 56.51 148.83 56.36 147.2 56.01C147.29 55.58 147.37 55.16 147.46 54.73C148.36 54.86 149.3 55.03 150.21 54.81C150.85 54.6 151.06 53.66 150.53 53.23C149.61 52.43 148.24 52.18 147.59 51.08C146.96 50.12 147.5 48.78 148.46 48.27" fill="url(#paint13_linear_1315_13912)"/>
<path d="M154.5 47.83C156.49 47.83 158.49 47.83 160.48 47.83C160.48 48.3 160.47 48.77 160.46 49.24C159.81 49.24 159.16 49.24 158.51 49.24C158.49 51.56 158.51 53.88 158.51 56.2C157.83 56.2 157.16 56.2 156.49 56.19C156.47 53.87 156.49 51.56 156.47 49.24C155.81 49.24 155.15 49.24 154.5 49.22C154.5 48.75 154.5 48.28 154.5 47.82" fill="url(#paint14_linear_1315_13912)"/>
<path d="M162.83 47.91C164.48 47.84 166.27 47.55 167.82 48.29C168.86 48.75 169.16 50.14 168.63 51.08C168.36 51.6 167.8 51.87 167.36 52.21C168.65 53.15 168.63 54.84 169.14 56.21C168.43 56.21 167.72 56.21 167.02 56.21C166.74 55.31 166.63 54.37 166.31 53.49C166.09 52.88 165.41 52.83 164.86 52.74C164.83 53.91 164.86 55.07 164.81 56.24C164.14 56.24 163.48 56.24 162.82 56.22C162.82 53.45 162.79 50.69 162.83 47.92M164.85 48.92C164.85 49.85 164.85 50.79 164.85 51.72C165.46 51.58 166.27 51.65 166.62 51.02C166.95 50.52 166.74 49.91 166.7 49.37C166.13 49.06 165.49 48.96 164.85 48.92Z" fill="url(#paint15_linear_1315_13912)"/>
<path d="M171.58 47.84C172.26 47.84 172.94 47.84 173.62 47.84C173.6 50.63 173.62 53.42 173.62 56.21C172.94 56.21 172.26 56.2 171.59 56.18C171.59 53.4 171.59 50.62 171.59 47.84" fill="url(#paint16_linear_1315_13912)"/>
<path d="M175.91 56.2C176.69 53.41 177.45 50.62 178.28 47.84C179.09 47.84 179.89 47.81 180.7 47.86C181.58 50.59 182.1 53.44 182.92 56.2C182.26 56.2 181.61 56.21 180.96 56.2C180.78 55.56 180.62 54.92 180.45 54.28C179.75 54.28 179.05 54.28 178.36 54.28C178.19 54.93 178.02 55.57 177.85 56.22C177.21 56.22 176.56 56.22 175.93 56.2M179.47 49.24C179.09 50.52 178.76 51.81 178.57 53.12C179.13 53.12 179.69 53.12 180.26 53.1C180.05 51.8 179.73 50.52 179.47 49.23" fill="url(#paint17_linear_1315_13912)"/>
<path d="M123.95 60.8C124.56 60.8 125.18 60.77 125.79 60.86C126.88 62.72 127.78 64.7 128.78 66.61C128.7 64.68 128.6 62.76 128.64 60.82C129.23 60.81 129.81 60.8 130.4 60.79C130.4 63.61 130.42 66.43 130.4 69.25C129.78 69.22 129.15 69.2 128.53 69.18C127.58 67.3 126.5 65.49 125.71 63.53C125.65 65.43 125.76 67.33 125.71 69.23C125.13 69.23 124.55 69.23 123.97 69.23C123.94 66.42 123.94 63.6 123.97 60.79" fill="url(#paint18_linear_1315_13912)"/>
<path d="M133.51 60.82C134.19 60.81 134.86 60.81 135.54 60.82C135.54 63.62 135.54 66.42 135.54 69.22C134.86 69.24 134.18 69.24 133.5 69.22C133.49 66.42 133.5 63.62 133.5 60.82" fill="url(#paint19_linear_1315_13912)"/>
<path d="M137.72 60.82C138.46 60.8 139.2 60.8 139.95 60.8C140.45 62.99 140.91 65.19 141.34 67.4C141.9 65.22 142.25 62.99 142.76 60.8C143.5 60.8 144.23 60.8 144.97 60.82C144.17 63.62 143.31 66.4 142.48 69.2C141.71 69.23 140.94 69.23 140.18 69.24C139.33 66.44 138.51 63.63 137.73 60.82" fill="url(#paint20_linear_1315_13912)"/>
<path d="M147.11 60.8C148.68 60.8 150.24 60.8 151.81 60.8C151.81 61.25 151.81 61.7 151.81 62.15C150.94 62.15 150.06 62.15 149.19 62.15C149.19 62.83 149.17 63.51 149.18 64.18C150 64.19 150.83 64.18 151.65 64.2C151.65 64.62 151.65 65.04 151.65 65.46C150.82 65.48 149.99 65.48 149.16 65.49C149.12 66.29 149.13 67.09 149.18 67.89C150.12 67.91 151.05 67.9 151.99 67.9C151.99 68.34 151.99 68.78 151.99 69.22C150.37 69.22 148.75 69.22 147.12 69.22C147.12 66.41 147.12 63.6 147.12 60.79" fill="url(#paint21_linear_1315_13912)"/>
<path d="M154.63 60.92C156.28 60.77 158.07 60.54 159.62 61.28C160.7 61.74 161.02 63.23 160.42 64.18C160.13 64.65 159.61 64.91 159.17 65.23C160.53 66.12 160.45 67.87 160.97 69.24C160.26 69.22 159.54 69.27 158.85 69.14C158.48 68.2 158.52 67.13 158.01 66.25C157.76 65.77 157.13 65.9 156.7 65.75C156.67 66.91 156.7 68.07 156.65 69.22C155.98 69.22 155.31 69.22 154.64 69.22C154.63 66.45 154.64 63.68 154.64 60.91M156.66 61.93C156.63 62.87 156.61 63.82 156.69 64.77C157.23 64.65 157.88 64.71 158.29 64.27C158.84 63.8 158.62 63.03 158.58 62.4C158 62.05 157.34 61.91 156.67 61.93" fill="url(#paint22_linear_1315_13912)"/>
<path d="M170.96 60.81C171.63 60.81 172.31 60.81 172.99 60.83C172.99 63.63 173.03 66.44 172.97 69.24H170.96C170.96 66.43 170.96 63.62 170.96 60.81Z" fill="url(#paint23_linear_1315_13912)"/>
<path d="M175.29 60.81C177.28 60.79 179.27 60.81 181.26 60.81C181.26 61.28 181.26 61.76 181.27 62.23C180.62 62.23 179.97 62.23 179.33 62.25C179.29 64.58 179.34 66.9 179.3 69.23C178.63 69.23 177.96 69.23 177.29 69.23C177.24 66.91 177.29 64.58 177.27 62.26C176.61 62.24 175.94 62.23 175.28 62.23C175.28 61.76 175.28 61.29 175.28 60.81" fill="url(#paint24_linear_1315_13912)"/>
<path d="M182.98 60.82C183.69 60.82 184.41 60.81 185.12 60.8C185.56 62.08 186.09 63.32 186.51 64.61C186.92 63.34 187.37 62.08 187.77 60.81C188.46 60.81 189.15 60.81 189.85 60.82C189.11 62.54 188.18 64.18 187.46 65.91C187.31 67.01 187.43 68.13 187.4 69.24C186.72 69.24 186.05 69.24 185.37 69.24C185.27 67.87 185.68 66.39 184.98 65.13C184.31 63.7 183.62 62.27 182.98 60.82Z" fill="url(#paint25_linear_1315_13912)"/>
<path d="M196.42 60.87C197.42 60.65 198.59 60.65 199.44 61.31C200.58 62.15 200.87 63.68 200.87 65.01C200.84 66.33 200.56 67.83 199.45 68.68C197.86 69.82 195.2 69.43 194.39 67.53C193.42 65.27 193.75 61.75 196.42 60.87ZM197.08 61.94C196.71 62.34 196.21 62.7 196.16 63.28C195.91 64.85 195.79 66.64 196.76 68C197.36 68.03 198.11 68.08 198.4 67.42C198.93 66.02 198.9 64.43 198.55 62.99C198.42 62.3 197.73 61.99 197.09 61.94" fill="url(#paint26_linear_1315_13912)"/>
<path d="M114.61 73.75C115.3 73.75 115.98 73.75 116.67 73.75C116.7 74.88 116.67 76.02 116.7 77.15C117.48 77.15 118.27 77.15 119.05 77.15C119.08 76.03 119.07 74.9 119.07 73.78C119.74 73.76 120.42 73.75 121.1 73.75C121.1 76.55 121.1 79.35 121.1 82.15C120.42 82.15 119.75 82.14 119.07 82.12C119.07 80.94 119.07 79.76 119.07 78.57C118.29 78.55 117.51 78.54 116.73 78.56C116.67 79.75 116.7 80.94 116.7 82.14C116 82.14 115.31 82.14 114.62 82.14C114.62 79.34 114.62 76.54 114.62 73.75" fill="url(#paint27_linear_1315_13912)"/>
<path d="M126.22 73.78C127.28 73.52 128.54 73.6 129.39 74.36C130.37 75.26 130.66 76.65 130.65 77.92C130.62 79.18 130.35 80.55 129.39 81.46C128.07 82.53 125.93 82.51 124.72 81.27C123.7 80.06 123.48 78.35 123.73 76.83C123.96 75.48 124.82 74.12 126.22 73.77M125.99 76.08C125.64 77.58 125.65 79.24 126.32 80.66C126.78 80.81 127.33 81.09 127.78 80.72C128.44 80.08 128.47 79.07 128.53 78.21C128.53 77.15 128.57 75.89 127.74 75.11C126.99 74.58 126.16 75.34 126 76.08" fill="url(#paint28_linear_1315_13912)"/>
<path d="M134.75 74.2C135.88 73.6 137.21 73.61 138.45 73.81C138.36 74.22 138.27 74.63 138.17 75.04C137.17 74.94 135.95 74.95 135.34 75.9C134.56 77.16 134.54 78.97 135.46 80.17C136.13 80.98 137.28 80.86 138.21 80.81C138.24 81.24 138.28 81.67 138.31 82.1C136.78 82.29 135.01 82.32 133.8 81.21C131.91 79.3 132.26 75.47 134.75 74.21" fill="url(#paint29_linear_1315_13912)"/>
<path d="M150.25 73.75C150.92 73.75 151.6 73.75 152.28 73.77C152.28 76.56 152.28 79.35 152.28 82.14C151.6 82.14 150.92 82.15 150.25 82.15C150.25 79.35 150.25 76.55 150.25 73.75Z" fill="url(#paint30_linear_1315_13912)"/>
<path d="M155.75 73.75C156.47 73.75 157.19 73.75 157.91 73.75C158.59 75.74 158.95 77.83 159.77 79.77C160.09 77.71 160.75 75.74 161.32 73.74C162.04 73.74 162.76 73.74 163.48 73.76C163.72 76.55 163.92 79.35 164.13 82.14C163.53 82.14 162.94 82.13 162.34 82.12C162.26 80.2 162.04 78.3 161.89 76.39C161.51 78.3 160.76 80.1 160.23 81.97C159.75 81.97 159.27 81.97 158.79 81.97C158.24 80.11 157.57 78.28 157.19 76.38C156.93 78.29 156.8 80.22 156.68 82.15C156.11 82.15 155.54 82.15 154.98 82.15C155.23 79.35 155.45 76.55 155.76 73.76" fill="url(#paint31_linear_1315_13912)"/>
<path d="M166.91 73.76C167.58 73.75 168.25 73.75 168.92 73.75C168.94 76.55 168.92 79.35 168.92 82.15C168.24 82.15 167.56 82.15 166.88 82.13C166.88 79.34 166.86 76.55 166.9 73.76" fill="url(#paint32_linear_1315_13912)"/>
<path d="M172.04 73.74C172.64 73.74 173.26 73.72 173.86 73.8C174.97 75.65 175.88 77.63 176.86 79.55C176.82 77.62 176.64 75.7 176.73 73.77C177.32 73.75 177.91 73.75 178.5 73.74C178.52 76.54 178.5 79.34 178.5 82.14H176.63C175.63 80.25 174.59 78.38 173.74 76.42C173.73 78.33 173.85 80.23 173.79 82.14H172.01C172.03 79.34 172 76.54 172.03 73.74" fill="url(#paint33_linear_1315_13912)"/>
<path d="M181.6 73.75C182.27 73.75 182.95 73.75 183.62 73.75C183.65 74.89 183.62 76.02 183.65 77.16C184.42 77.13 185.19 77.12 185.97 77.11C185.97 75.99 185.97 74.87 185.99 73.75C186.66 73.74 187.32 73.73 187.99 73.73C188.01 76.53 187.99 79.33 187.99 82.13C187.31 82.13 186.64 82.13 185.97 82.13C185.95 80.94 185.97 79.75 185.96 78.56C185.19 78.54 184.42 78.55 183.65 78.56C183.61 79.75 183.64 80.95 183.63 82.14C182.94 82.14 182.26 82.14 181.58 82.14C181.58 79.35 181.56 76.55 181.58 73.75" fill="url(#paint34_linear_1315_13912)"/>
<path d="M194.86 74.49C196.05 73.62 197.62 73.56 199.03 73.81C198.93 74.23 198.84 74.64 198.74 75.06C197.94 75.02 197.04 74.88 196.37 75.43C195.15 76.43 195.14 78.34 195.7 79.69C196.23 80.88 197.66 80.91 198.78 80.8C198.8 81.22 198.83 81.65 198.85 82.07C197.06 82.38 194.79 82.21 193.79 80.46C192.77 78.57 192.99 75.78 194.86 74.48" fill="url(#paint35_linear_1315_13912)"/>
<path d="M213.32 73.75C214.04 73.75 214.75 73.75 215.47 73.77C215.94 75.01 216.4 76.26 216.85 77.51C217.29 76.26 217.66 74.99 218.11 73.75C218.8 73.74 219.49 73.74 220.18 73.74C219.5 75.2 218.8 76.64 218.1 78.08C217.41 79.32 217.82 80.79 217.72 82.14C217.04 82.14 216.36 82.13 215.69 82.11C215.59 80.76 216 79.28 215.31 78.04C214.65 76.61 213.96 75.19 213.31 73.74" fill="url(#paint36_linear_1315_13912)"/>
<path d="M114.59 60.81C115.27 60.81 115.94 60.81 116.62 60.81C116.62 62.58 116.62 64.36 116.62 66.13C116.62 66.72 116.67 67.4 117.15 67.82C117.78 68.28 118.85 67.82 118.8 66.98C118.9 64.93 118.8 62.86 118.86 60.81C119.54 60.81 120.22 60.81 120.9 60.81C120.89 62.77 120.97 64.73 120.86 66.69C120.81 67.85 120.01 68.98 118.83 69.2C117.77 69.38 116.55 69.4 115.63 68.75C114.99 68.17 114.6 67.29 114.6 66.42C114.57 64.55 114.6 62.67 114.6 60.8" fill="url(#paint37_linear_1315_13912)"/>
<path d="M164.45 61.13C165.58 60.59 166.88 60.73 168.07 60.96C167.99 61.39 167.91 61.83 167.83 62.27C166.78 61.98 165.39 61.86 164.86 63.04C165.62 64.43 167.6 64.43 168.31 65.88C168.85 66.85 168.35 68.11 167.43 68.65C166.06 69.5 164.35 69.34 162.84 69.01C162.94 68.59 163.04 68.17 163.15 67.74C164.12 67.89 165.28 68.24 166.17 67.64C166.71 67.24 166.58 66.42 166.04 66.08C165.06 65.4 163.73 65.06 163.17 63.9C162.59 62.83 163.4 61.52 164.45 61.12" fill="url(#paint38_linear_1315_13912)"/>
<path d="M203.41 60.82C204.97 60.8 206.54 60.82 208.11 60.82C208.11 61.26 208.09 61.71 208.09 62.15C207.21 62.16 206.33 62.15 205.45 62.17C205.43 62.92 205.43 63.68 205.45 64.43C206.28 64.48 207.1 64.48 207.93 64.5C207.93 64.9 207.93 65.31 207.93 65.71C207.1 65.71 206.27 65.71 205.45 65.73C205.42 66.9 205.43 68.08 205.43 69.25C204.76 69.24 204.08 69.21 203.41 69.19C203.41 66.4 203.39 63.61 203.41 60.82Z" fill="url(#paint39_linear_1315_13912)"/>
<path d="M140.75 73.76C141.41 73.76 142.07 73.76 142.74 73.76C142.74 74.89 142.74 76.02 142.76 77.14C143.55 77.14 144.33 77.14 145.13 77.12C145.16 75.99 145.14 74.87 145.16 73.74C145.83 73.74 146.49 73.74 147.16 73.76C147.18 76.55 147.16 79.35 147.17 82.14C146.49 82.14 145.82 82.14 145.15 82.14C145.15 80.95 145.15 79.76 145.13 78.57C144.34 78.55 143.55 78.54 142.77 78.57C142.73 79.76 142.75 80.95 142.75 82.15C142.07 82.15 141.39 82.15 140.71 82.13C140.73 79.34 140.66 76.55 140.75 73.76Z" fill="url(#paint40_linear_1315_13912)"/>
<path d="M201.31 73.74C201.97 73.74 202.64 73.74 203.3 73.77C203.33 76.56 203.33 79.35 203.3 82.14C202.63 82.14 201.96 82.14 201.29 82.14C201.29 79.34 201.27 76.54 201.3 73.73" fill="url(#paint41_linear_1315_13912)"/>
<path d="M205.65 73.77C207.63 73.72 209.61 73.76 211.59 73.74C211.59 74.21 211.59 74.67 211.59 75.14C210.94 75.14 210.29 75.15 209.64 75.17C209.6 77.49 209.64 79.81 209.62 82.13C208.94 82.13 208.27 82.13 207.6 82.13C207.6 79.81 207.6 77.49 207.6 75.17C206.95 75.15 206.31 75.14 205.67 75.14C205.65 74.68 205.65 74.22 205.65 73.77Z" fill="url(#paint42_linear_1315_13912)"/>
</g>
<defs>
<linearGradient id="paint0_linear_1315_13912" x1="25.0199" y1="5.3" x2="203.99" y2="102.97" gradientUnits="userSpaceOnUse">
<stop stop-color="#F6BA21"/>
<stop offset="0.51" stop-color="#DDAA01"/>
<stop offset="1" stop-color="#DCA900"/>
</linearGradient>
<linearGradient id="paint1_linear_1315_13912" x1="9.06996" y1="34.53" x2="188.04" y2="132.19" gradientUnits="userSpaceOnUse">
<stop stop-color="#F6BA21"/>
<stop offset="0.51" stop-color="#DDAA01"/>
<stop offset="1" stop-color="#DCA900"/>
</linearGradient>
<linearGradient id="paint2_linear_1315_13912" x1="-2.39" y1="55.53" x2="176.58" y2="153.19" gradientUnits="userSpaceOnUse">
<stop stop-color="#F6BA21"/>
<stop offset="0.51" stop-color="#DDAA01"/>
<stop offset="1" stop-color="#DCA900"/>
</linearGradient>
<linearGradient id="paint3_linear_1315_13912" x1="18.79" y1="16.72" x2="197.76" y2="114.38" gradientUnits="userSpaceOnUse">
<stop stop-color="#F6BA21"/>
<stop offset="0.51" stop-color="#DDAA01"/>
<stop offset="1" stop-color="#DCA900"/>
</linearGradient>
<linearGradient id="paint4_linear_1315_13912" x1="18.6499" y1="16.98" x2="197.63" y2="114.65" gradientUnits="userSpaceOnUse">
<stop stop-color="#F6BA21"/>
<stop offset="0.51" stop-color="#DDAA01"/>
<stop offset="1" stop-color="#DCA900"/>
</linearGradient>
<linearGradient id="paint5_linear_1315_13912" x1="18.62" y1="17.03" x2="197.61" y2="114.7" gradientUnits="userSpaceOnUse">
<stop stop-color="#F6BA21"/>
<stop offset="0.51" stop-color="#DDAA01"/>
<stop offset="1" stop-color="#DCA900"/>
</linearGradient>
<linearGradient id="paint6_linear_1315_13912" x1="9.54996" y1="33.65" x2="188.52" y2="131.31" gradientUnits="userSpaceOnUse">
<stop stop-color="#F6BA21"/>
<stop offset="0.51" stop-color="#DDAA01"/>
<stop offset="1" stop-color="#DCA900"/>
</linearGradient>
<linearGradient id="paint7_linear_1315_13912" x1="15.5101" y1="22.73" x2="194.47" y2="120.39" gradientUnits="userSpaceOnUse">
<stop stop-color="#F6BA21"/>
<stop offset="0.51" stop-color="#DDAA01"/>
<stop offset="1" stop-color="#DCA900"/>
</linearGradient>
<linearGradient id="paint8_linear_1315_13912" x1="26.1801" y1="3.19001" x2="205.14" y2="100.85" gradientUnits="userSpaceOnUse">
<stop stop-color="#F6BA21"/>
<stop offset="0.51" stop-color="#DDAA01"/>
<stop offset="1" stop-color="#DCA900"/>
</linearGradient>
<linearGradient id="paint9_linear_1315_13912" x1="42.3699" y1="-26.52" x2="221.35" y2="71.15" gradientUnits="userSpaceOnUse">
<stop stop-color="#F6BA21"/>
<stop offset="0.51" stop-color="#DDAA01"/>
<stop offset="1" stop-color="#DCA900"/>
</linearGradient>
<linearGradient id="paint10_linear_1315_13912" x1="27.86" y1="0.100005" x2="206.83" y2="97.7599" gradientUnits="userSpaceOnUse">
<stop stop-color="#F6BA21"/>
<stop offset="0.51" stop-color="#DDAA01"/>
<stop offset="1" stop-color="#DCA900"/>
</linearGradient>
<linearGradient id="paint11_linear_1315_13912" x1="29.77" y1="-3.38999" x2="208.73" y2="94.2599" gradientUnits="userSpaceOnUse">
<stop stop-color="#F6BA21"/>
<stop offset="0.51" stop-color="#DDAA01"/>
<stop offset="1" stop-color="#DCA900"/>
</linearGradient>
<linearGradient id="paint12_linear_1315_13912" x1="32.3099" y1="-8.09999" x2="211.3" y2="89.57" gradientUnits="userSpaceOnUse">
<stop stop-color="#F6BA21"/>
<stop offset="0.51" stop-color="#DDAA01"/>
<stop offset="1" stop-color="#DCA900"/>
</linearGradient>
<linearGradient id="paint13_linear_1315_13912" x1="34.0099" y1="-11.19" x2="212.99" y2="86.4701" gradientUnits="userSpaceOnUse">
<stop stop-color="#F6BA21"/>
<stop offset="0.51" stop-color="#DDAA01"/>
<stop offset="1" stop-color="#DCA900"/>
</linearGradient>
<linearGradient id="paint14_linear_1315_13912" x1="35.9801" y1="-14.84" x2="214.98" y2="82.8399" gradientUnits="userSpaceOnUse">
<stop stop-color="#F6BA21"/>
<stop offset="0.51" stop-color="#DDAA01"/>
<stop offset="1" stop-color="#DCA900"/>
</linearGradient>
<linearGradient id="paint15_linear_1315_13912" x1="37.47" y1="-17.52" x2="216.44" y2="80.1499" gradientUnits="userSpaceOnUse">
<stop stop-color="#F6BA21"/>
<stop offset="0.51" stop-color="#DDAA01"/>
<stop offset="1" stop-color="#DCA900"/>
</linearGradient>
<linearGradient id="paint16_linear_1315_13912" x1="39.2205" y1="-20.77" x2="218.22" y2="76.8995" gradientUnits="userSpaceOnUse">
<stop stop-color="#F6BA21"/>
<stop offset="0.51" stop-color="#DDAA01"/>
<stop offset="1" stop-color="#DCA900"/>
</linearGradient>
<linearGradient id="paint17_linear_1315_13912" x1="40.55" y1="-23.14" x2="219.51" y2="74.5199" gradientUnits="userSpaceOnUse">
<stop stop-color="#F6BA21"/>
<stop offset="0.51" stop-color="#DDAA01"/>
<stop offset="1" stop-color="#DCA900"/>
</linearGradient>
<linearGradient id="paint18_linear_1315_13912" x1="23.3401" y1="8.36001" x2="202.32" y2="106.03" gradientUnits="userSpaceOnUse">
<stop stop-color="#F6BA21"/>
<stop offset="0.51" stop-color="#DDAA01"/>
<stop offset="1" stop-color="#DCA900"/>
</linearGradient>
<linearGradient id="paint19_linear_1315_13912" x1="25.0604" y1="5.27999" x2="203.99" y2="102.919" gradientUnits="userSpaceOnUse">
<stop stop-color="#F6BA21"/>
<stop offset="0.51" stop-color="#DDAA01"/>
<stop offset="1" stop-color="#DCA900"/>
</linearGradient>
<linearGradient id="paint20_linear_1315_13912" x1="26.87" y1="1.90001" x2="205.84" y2="99.57" gradientUnits="userSpaceOnUse">
<stop stop-color="#F6BA21"/>
<stop offset="0.51" stop-color="#DDAA01"/>
<stop offset="1" stop-color="#DCA900"/>
</linearGradient>
<linearGradient id="paint21_linear_1315_13912" x1="28.45" y1="-1.01" x2="207.44" y2="96.6602" gradientUnits="userSpaceOnUse">
<stop stop-color="#F6BA21"/>
<stop offset="0.51" stop-color="#DDAA01"/>
<stop offset="1" stop-color="#DCA900"/>
</linearGradient>
<linearGradient id="paint22_linear_1315_13912" x1="30.14" y1="-4.04" x2="209.09" y2="93.6099" gradientUnits="userSpaceOnUse">
<stop stop-color="#F6BA21"/>
<stop offset="0.51" stop-color="#DDAA01"/>
<stop offset="1" stop-color="#DCA900"/>
</linearGradient>
<linearGradient id="paint23_linear_1315_13912" x1="33.6202" y1="-10.47" x2="212.59" y2="87.1998" gradientUnits="userSpaceOnUse">
<stop stop-color="#F6BA21"/>
<stop offset="0.51" stop-color="#DDAA01"/>
<stop offset="1" stop-color="#DCA900"/>
</linearGradient>
<linearGradient id="paint24_linear_1315_13912" x1="35.2699" y1="-13.56" x2="214.28" y2="84.1301" gradientUnits="userSpaceOnUse">
<stop stop-color="#F6BA21"/>
<stop offset="0.51" stop-color="#DDAA01"/>
<stop offset="1" stop-color="#DCA900"/>
</linearGradient>
<linearGradient id="paint25_linear_1315_13912" x1="37.2098" y1="-17.05" x2="216.18" y2="80.6203" gradientUnits="userSpaceOnUse">
<stop stop-color="#F6BA21"/>
<stop offset="0.51" stop-color="#DDAA01"/>
<stop offset="1" stop-color="#DCA900"/>
</linearGradient>
<linearGradient id="paint26_linear_1315_13912" x1="39.4801" y1="-21.17" x2="218.43" y2="76.4899" gradientUnits="userSpaceOnUse">
<stop stop-color="#F6BA21"/>
<stop offset="0.51" stop-color="#DDAA01"/>
<stop offset="1" stop-color="#DCA900"/>
</linearGradient>
<linearGradient id="paint27_linear_1315_13912" x1="15.7701" y1="22.24" x2="194.75" y2="119.91" gradientUnits="userSpaceOnUse">
<stop stop-color="#F6BA21"/>
<stop offset="0.51" stop-color="#DDAA01"/>
<stop offset="1" stop-color="#DCA900"/>
</linearGradient>
<linearGradient id="paint28_linear_1315_13912" x1="17.9201" y1="18.31" x2="196.89" y2="115.97" gradientUnits="userSpaceOnUse">
<stop stop-color="#F6BA21"/>
<stop offset="0.51" stop-color="#DDAA01"/>
<stop offset="1" stop-color="#DCA900"/>
</linearGradient>
<linearGradient id="paint29_linear_1315_13912" x1="20.1202" y1="14.26" x2="199.1" y2="111.93" gradientUnits="userSpaceOnUse">
<stop stop-color="#F6BA21"/>
<stop offset="0.51" stop-color="#DDAA01"/>
<stop offset="1" stop-color="#DCA900"/>
</linearGradient>
<linearGradient id="paint30_linear_1315_13912" x1="23.4401" y1="8.20999" x2="202.4" y2="105.87" gradientUnits="userSpaceOnUse">
<stop stop-color="#F6BA21"/>
<stop offset="0.51" stop-color="#DDAA01"/>
<stop offset="1" stop-color="#DCA900"/>
</linearGradient>
<linearGradient id="paint31_linear_1315_13912" x1="25.2698" y1="4.85997" x2="204.23" y2="102.52" gradientUnits="userSpaceOnUse">
<stop stop-color="#F6BA21"/>
<stop offset="0.51" stop-color="#DDAA01"/>
<stop offset="1" stop-color="#DCA900"/>
</linearGradient>
<linearGradient id="paint32_linear_1315_13912" x1="27.2601" y1="1.18999" x2="206.23" y2="98.8599" gradientUnits="userSpaceOnUse">
<stop stop-color="#F6BA21"/>
<stop offset="0.51" stop-color="#DDAA01"/>
<stop offset="1" stop-color="#DCA900"/>
</linearGradient>
<linearGradient id="paint33_linear_1315_13912" x1="28.9499" y1="-1.90001" x2="207.92" y2="95.7701" gradientUnits="userSpaceOnUse">
<stop stop-color="#F6BA21"/>
<stop offset="0.51" stop-color="#DDAA01"/>
<stop offset="1" stop-color="#DCA900"/>
</linearGradient>
<linearGradient id="paint34_linear_1315_13912" x1="31.1398" y1="-5.90996" x2="210.1" y2="91.7502" gradientUnits="userSpaceOnUse">
<stop stop-color="#F6BA21"/>
<stop offset="0.51" stop-color="#DDAA01"/>
<stop offset="1" stop-color="#DCA900"/>
</linearGradient>
<linearGradient id="paint35_linear_1315_13912" x1="34.01" y1="-11.21" x2="213" y2="86.46" gradientUnits="userSpaceOnUse">
<stop stop-color="#F6BA21"/>
<stop offset="0.51" stop-color="#DDAA01"/>
<stop offset="1" stop-color="#DCA900"/>
</linearGradient>
<linearGradient id="paint36_linear_1315_13912" x1="38.7702" y1="-19.84" x2="217.71" y2="77.8099" gradientUnits="userSpaceOnUse">
<stop stop-color="#F6BA21"/>
<stop offset="0.51" stop-color="#DDAA01"/>
<stop offset="1" stop-color="#DCA900"/>
</linearGradient>
<linearGradient id="paint37_linear_1315_13912" x1="21.4" y1="11.94" x2="200.37" y2="109.6" gradientUnits="userSpaceOnUse">
<stop stop-color="#F6BA21"/>
<stop offset="0.51" stop-color="#DDAA01"/>
<stop offset="1" stop-color="#DCA900"/>
</linearGradient>
<linearGradient id="paint38_linear_1315_13912" x1="32.1301" y1="-7.76001" x2="211.12" y2="89.91" gradientUnits="userSpaceOnUse">
<stop stop-color="#F6BA21"/>
<stop offset="0.51" stop-color="#DDAA01"/>
<stop offset="1" stop-color="#DCA900"/>
</linearGradient>
<linearGradient id="paint39_linear_1315_13912" x1="41.3601" y1="-24.71" x2="220.36" y2="72.9699" gradientUnits="userSpaceOnUse">
<stop stop-color="#F6BA21"/>
<stop offset="0.51" stop-color="#DDAA01"/>
<stop offset="1" stop-color="#DCA900"/>
</linearGradient>
<linearGradient id="paint40_linear_1315_13912" x1="21.75" y1="11.27" x2="200.73" y2="108.94" gradientUnits="userSpaceOnUse">
<stop stop-color="#F6BA21"/>
<stop offset="0.51" stop-color="#DDAA01"/>
<stop offset="1" stop-color="#DCA900"/>
</linearGradient>
<linearGradient id="paint41_linear_1315_13912" x1="35.1497" y1="-13.25" x2="214.11" y2="84.4103" gradientUnits="userSpaceOnUse">
<stop stop-color="#F6BA21"/>
<stop offset="0.51" stop-color="#DDAA01"/>
<stop offset="1" stop-color="#DCA900"/>
</linearGradient>
<linearGradient id="paint42_linear_1315_13912" x1="36.8498" y1="-16.32" x2="215.8" y2="81.3201" gradientUnits="userSpaceOnUse">
<stop stop-color="#F6BA21"/>
<stop offset="0.51" stop-color="#DDAA01"/>
<stop offset="1" stop-color="#DCA900"/>
</linearGradient>
<clipPath id="clip0_1315_13912">
<rect width="220.18" height="92.8" fill="white"/>
</clipPath>
</defs>
</svg>
